<svg width="126" height="30" viewBox="0 0 126 30" fill="none" xmlns="http://www.w3.org/2000/svg">
<path d="M78.2501 0.198242V6.82701H77.4732L73.8611 1.62239H73.7964V6.82701H72.9937V0.198242H73.7705L77.3956 5.41581H77.4603V0.198242H78.2501Z" fill="white"/>
<path d="M71.6439 3.51268C71.6439 4.21181 71.5177 4.81599 71.2653 5.32523C71.0128 5.83447 70.6665 6.22719 70.2263 6.50339C69.7861 6.77959 69.2833 6.91769 68.718 6.91769C68.1526 6.91769 67.6499 6.77959 67.2097 6.50339C66.7695 6.22719 66.4231 5.83447 66.1707 5.32523C65.9182 4.81599 65.792 4.21181 65.792 3.51268C65.792 2.81355 65.9182 2.20937 66.1707 1.70012C66.4231 1.19088 66.7695 0.798163 67.2097 0.521964C67.6499 0.245765 68.1526 0.107666 68.718 0.107666C69.2833 0.107666 69.7861 0.245765 70.2263 0.521964C70.6665 0.798163 71.0128 1.19088 71.2653 1.70012C71.5177 2.20937 71.6439 2.81355 71.6439 3.51268ZM70.8671 3.51268C70.8671 2.9387 70.7711 2.45428 70.5791 2.0594C70.3892 1.66452 70.1313 1.36566 69.8055 1.16283C69.4818 0.959998 69.1193 0.858581 68.718 0.858581C68.3166 0.858581 67.953 0.959998 67.6272 1.16283C67.3035 1.36566 67.0457 1.66452 66.8536 2.0594C66.6637 2.45428 66.5688 2.9387 66.5688 3.51268C66.5688 4.08665 66.6637 4.57108 66.8536 4.96596C67.0457 5.36084 67.3035 5.65969 67.6272 5.86252C67.953 6.06536 68.3166 6.16677 68.718 6.16677C69.1193 6.16677 69.4818 6.06536 69.8055 5.86252C70.1313 5.65969 70.3892 5.36084 70.5791 4.96596C70.7711 4.57108 70.8671 4.08665 70.8671 3.51268Z" fill="white"/>
<path d="M57.2769 0.910317V0.198242H62.2484V0.910317H60.164V6.82701H59.3613V0.910317H57.2769Z" fill="white"/>
<path d="M56.0302 0.198242V6.82701H55.2275V0.198242H56.0302Z" fill="white"/>
<path d="M46.4536 0.910317V0.198242H51.4252V0.910317H49.3408V6.82701H48.538V0.910317H46.4536Z" fill="white"/>
<path d="M41.3687 6.82701V0.198242H45.3692V0.910317H42.1714V3.15012H45.1621V3.86219H42.1714V6.11493H45.421V6.82701H41.3687Z" fill="white"/>
<path d="M39.1263 2.26978C39.0551 2.05185 38.9612 1.85656 38.8447 1.68394C38.7303 1.50916 38.5933 1.36027 38.4336 1.23728C38.2761 1.11428 38.097 1.02042 37.8963 0.955682C37.6956 0.890948 37.4755 0.858581 37.236 0.858581C36.8433 0.858581 36.4862 0.959998 36.1647 1.16283C35.8432 1.36566 35.5875 1.66452 35.3976 2.0594C35.2077 2.45428 35.1127 2.9387 35.1127 3.51268C35.1127 4.08665 35.2088 4.57108 35.4008 4.96596C35.5929 5.36084 35.8529 5.65969 36.1809 5.86252C36.5088 6.06536 36.8778 6.16677 37.2878 6.16677C37.6676 6.16677 38.002 6.08586 38.2912 5.92402C38.5825 5.76003 38.8091 5.52914 38.9709 5.23137C39.1349 4.93143 39.2169 4.57863 39.2169 4.17297L39.4629 4.22475H37.4691V3.51268H39.9937V4.22475C39.9937 4.77068 39.8772 5.24539 39.6441 5.6489C39.4132 6.05241 39.0939 6.36529 38.6861 6.58755C38.2804 6.80764 37.8143 6.91769 37.2878 6.91769C36.7009 6.91769 36.1852 6.77959 35.7407 6.50339C35.2983 6.22719 34.9531 5.83447 34.7049 5.32523C34.4589 4.81599 34.3359 4.21181 34.3359 3.51268C34.3359 2.98833 34.4061 2.51685 34.5463 2.09824C34.6887 1.67747 34.8894 1.31927 35.1483 1.02365C35.4073 0.728034 35.7137 0.501465 36.0676 0.343945C36.4215 0.186426 36.8109 0.107666 37.236 0.107666C37.5856 0.107666 37.9114 0.160532 38.2135 0.266264C38.5178 0.369839 38.7886 0.517648 39.0259 0.709693C39.2654 0.899579 39.465 1.12723 39.6247 1.39264C39.7844 1.65589 39.8944 1.94827 39.9549 2.26978H39.1263Z" fill="white"/>
<path d="M105.463 25.4586H107.493V11.8612H105.463V25.4586ZM123.743 16.7596L121.417 22.6545H121.347L118.933 16.7596H116.746L120.368 24.9985L118.303 29.5819H120.419L126 16.7596H123.743ZM112.233 23.9143C111.569 23.9143 110.641 23.5815 110.641 22.7595C110.641 21.71 111.797 21.3077 112.793 21.3077C113.685 21.3077 114.106 21.4998 114.647 21.7623C114.49 23.0221 113.405 23.9143 112.233 23.9143ZM112.478 16.4621C111.009 16.4621 109.487 17.1096 108.858 18.544L110.659 19.296C111.044 18.544 111.761 18.2992 112.513 18.2992C113.563 18.2992 114.63 18.9284 114.647 20.0484V20.1882C114.28 19.9782 113.492 19.6635 112.531 19.6635C110.588 19.6635 108.612 20.7303 108.612 22.7246C108.612 24.5439 110.204 25.7161 111.988 25.7161C113.352 25.7161 114.106 25.1038 114.577 24.3863H114.647V25.4365H116.607V20.223C116.607 17.8089 114.804 16.4621 112.478 16.4621ZM99.9356 18.4147H97.049V13.754H99.9356C101.453 13.754 102.314 15.0099 102.314 16.0843C102.314 17.1381 101.453 18.4147 99.9356 18.4147ZM99.8834 11.8612H95.0203V25.4586H97.049V20.3072H99.8834C102.133 20.3072 104.344 18.679 104.344 16.0843C104.344 13.4902 102.133 11.8612 99.8834 11.8612ZM73.3649 23.9168C71.9628 23.9168 70.7893 22.7424 70.7893 21.1309C70.7893 19.5008 71.9628 18.3098 73.3649 18.3098C74.7491 18.3098 75.8355 19.5008 75.8355 21.1309C75.8355 22.7424 74.7491 23.9168 73.3649 23.9168ZM75.6953 17.5209H75.6251C75.1697 16.9778 74.2932 16.4872 73.1899 16.4872C70.8764 16.4872 68.7564 18.5201 68.7564 21.1309C68.7564 23.7239 70.8764 25.739 73.1899 25.739C74.2932 25.739 75.1697 25.2483 75.6251 24.6879H75.6953V25.3532C75.6953 27.1237 74.7491 28.0694 73.2247 28.0694C71.981 28.0694 71.21 27.1759 70.8943 26.4226L69.1248 27.1585C69.6325 28.3847 70.9814 29.8921 73.2247 29.8921C75.6082 29.8921 77.6233 28.49 77.6233 25.0728V16.7676H75.6953V17.5209ZM79.0254 25.4586H81.0571V11.8612H79.0254V25.4586ZM84.0537 20.9729C84.0014 19.1855 85.4387 18.2745 86.472 18.2745C87.2784 18.2745 87.9611 18.6777 88.1897 19.2556L84.0537 20.9729ZM90.3617 19.4306C89.9763 18.3973 88.8024 16.4872 86.4018 16.4872C84.0184 16.4872 82.0385 18.3621 82.0385 21.1131C82.0385 23.7065 84.0014 25.739 86.6292 25.739C88.7492 25.739 89.9763 24.4427 90.4848 23.689L88.9077 22.6375C88.3818 23.4086 87.6637 23.9168 86.6292 23.9168C85.5959 23.9168 84.8597 23.4435 84.3872 22.5148L90.5719 19.9566L90.3617 19.4306ZM41.0824 17.9066V19.869H45.7783C45.6381 20.9729 45.2702 21.7789 44.7094 22.3397C44.0258 23.0228 42.9568 23.7766 41.0824 23.7766C38.1911 23.7766 35.9308 21.4461 35.9308 18.5549C35.9308 15.6637 38.1911 13.333 41.0824 13.333C42.642 13.333 43.7806 13.9464 44.6218 14.735L46.0065 13.3504C44.8322 12.2291 43.2729 11.3705 41.0824 11.3705C37.1217 11.3705 33.7925 14.5948 33.7925 18.5549C33.7925 22.5148 37.1217 25.739 41.0824 25.739C43.2198 25.739 44.8322 25.038 46.0937 23.7239C47.3904 22.4272 47.7935 20.605 47.7935 19.1328C47.7935 18.6777 47.7582 18.2571 47.6882 17.9066H41.0824ZM53.1324 23.9168C51.7303 23.9168 50.5212 22.7603 50.5212 21.1131C50.5212 19.4485 51.7303 18.3098 53.1324 18.3098C54.534 18.3098 55.7431 19.4485 55.7431 21.1131C55.7431 22.7603 54.534 23.9168 53.1324 23.9168ZM53.1324 16.4872C50.5734 16.4872 48.4886 18.4321 48.4886 21.1131C48.4886 23.7766 50.5734 25.739 53.1324 25.739C55.6905 25.739 57.7757 23.7766 57.7757 21.1131C57.7757 18.4321 55.6905 16.4872 53.1324 16.4872ZM63.2615 23.9168C61.8604 23.9168 60.6508 22.7603 60.6508 21.1131C60.6508 19.4485 61.8604 18.3098 63.2615 18.3098C64.6636 18.3098 65.8723 19.4485 65.8723 21.1131C65.8723 22.7603 64.6636 23.9168 63.2615 23.9168ZM63.2615 16.4872C60.7035 16.4872 58.6187 18.4321 58.6187 21.1131C58.6187 23.7766 60.7035 25.739 63.2615 25.739C65.8206 25.739 67.9054 23.7766 67.9054 21.1131C67.9054 18.4321 65.8206 16.4872 63.2615 16.4872Z" fill="white"/>
<path d="M11.6871 13.9558L0.107422 26.2464C0.107857 26.2489 0.108727 26.251 0.109162 26.2536C0.464282 27.5881 1.68322 28.5708 3.12991 28.5708C3.70822 28.5708 4.25117 28.4145 4.7168 28.14L4.75378 28.1183L17.7882 20.5969L11.6871 13.9558Z" fill="#EB3131"/>
<path d="M23.4021 11.863L23.391 11.8554L17.7637 8.5932L11.4238 14.2347L17.7857 20.5957L23.3834 17.3659C24.3648 16.8361 25.0309 15.8015 25.0309 14.6085C25.0309 13.424 24.3737 12.3946 23.4021 11.863Z" fill="#F6B60B"/>
<path d="M0.106687 2.91948C0.0370773 3.17616 0.000488281 3.44503 0.000488281 3.72423V25.4421C0.000488281 25.7208 0.036642 25.9906 0.107122 26.2463L12.0854 14.2702L0.106687 2.91948Z" fill="#5778C5"/>
<path d="M11.7725 14.583L17.7661 8.59111L4.74644 1.04256C4.2732 0.759122 3.72089 0.59554 3.12985 0.59554C1.68316 0.59554 0.462597 1.57998 0.107368 2.91616C0.106933 2.91747 0.106934 2.91834 0.106934 2.91953L11.7725 14.583Z" fill="#3BAD49"/>
</svg>
