<svg width="120" height="30" viewBox="0 0 120 30" fill="none" xmlns="http://www.w3.org/2000/svg">
<path d="M18.4444 14.2117C18.4572 13.2196 18.7207 12.2468 19.2105 11.3839C19.7002 10.521 20.4003 9.79605 21.2455 9.27642C20.7085 8.50957 20.0002 7.87847 19.1767 7.43327C18.3532 6.98807 17.4372 6.74102 16.5015 6.71175C14.5055 6.50224 12.5705 7.90611 11.5534 7.90611C10.5166 7.90611 8.95054 6.73255 7.26421 6.76724C6.17344 6.80248 5.11039 7.11967 4.17866 7.6879C3.24692 8.25614 2.47826 9.05603 1.94758 10.0097C-0.351219 13.9897 1.36348 19.839 3.56554 23.0561C4.66727 24.6314 5.95489 26.3911 7.6397 26.3287C9.2884 26.2604 9.90415 25.2774 11.8943 25.2774C13.8659 25.2774 14.4436 26.3287 16.1626 26.2891C17.9317 26.2604 19.0464 24.7067 20.1095 23.1165C20.9011 21.994 21.5102 20.7534 21.9143 19.4406C20.8865 19.0059 20.0094 18.2783 19.3923 17.3484C18.7753 16.4185 18.4456 15.3276 18.4444 14.2117Z" fill="white"/>
<path d="M15.1973 4.59582C16.1619 3.43785 16.6371 1.94948 16.5221 0.446777C15.0484 0.601561 13.6871 1.30589 12.7095 2.41943C12.2315 2.96342 11.8654 3.59629 11.6321 4.28185C11.3988 4.96742 11.303 5.69223 11.35 6.41486C12.0871 6.42245 12.8164 6.26269 13.4828 5.9476C14.1492 5.63251 14.7354 5.17031 15.1973 4.59582Z" fill="white"/>
<path d="M39.2847 22.3404H33.6585L32.3074 26.3299H29.9243L35.2534 11.5696H37.7293L43.0584 26.3299H40.6347L39.2847 22.3404ZM34.2412 20.4994H38.7009L36.5024 14.0246H36.4409L34.2412 20.4994Z" fill="white"/>
<path d="M54.5677 20.9498C54.5677 24.2939 52.7778 26.4425 50.0767 26.4425C49.3924 26.4783 48.7119 26.3207 48.1131 25.9877C47.5143 25.6547 47.0214 25.1598 46.6907 24.5597H46.6396V29.89H44.4307V15.5684H46.5688V17.3583H46.6095C46.9553 16.7611 47.4566 16.2688 48.06 15.9338C48.6633 15.5988 49.3463 15.4336 50.036 15.4558C52.7673 15.4559 54.5677 17.6149 54.5677 20.9498ZM52.2972 20.9498C52.2972 18.771 51.1713 17.3386 49.4533 17.3386C47.7656 17.3386 46.6303 18.8012 46.6303 20.9498C46.6303 23.1181 47.7656 24.5702 49.4533 24.5702C51.1713 24.5702 52.2972 23.1483 52.2972 20.9498Z" fill="white"/>
<path d="M66.4124 20.9498C66.4124 24.2939 64.6225 26.4425 61.9214 26.4425C61.2372 26.4783 60.5567 26.3207 59.9579 25.9877C59.359 25.6547 58.8661 25.1598 58.5354 24.5597H58.4843V29.89H56.2754V15.5684H58.4135V17.3583H58.4541C58.8 16.7611 59.3013 16.2688 59.9046 15.9338C60.508 15.5988 61.1909 15.4336 61.8807 15.4558C64.6121 15.4558 66.4124 17.6149 66.4124 20.9498ZM64.1419 20.9498C64.1419 18.771 63.016 17.3386 61.2981 17.3386C59.6103 17.3386 58.4751 18.8012 58.4751 20.9498C58.4751 23.1181 59.6103 24.5702 61.2981 24.5702C63.016 24.5702 64.1419 23.1482 64.1419 20.9498Z" fill="white"/>
<path d="M74.2407 22.2173C74.4044 23.6811 75.8263 24.6421 77.7694 24.6421C79.6313 24.6421 80.9708 23.681 80.9708 22.3612C80.9708 21.2155 80.1629 20.5296 78.25 20.0594L76.3371 19.5986C73.6267 18.9439 72.3684 17.6764 72.3684 15.6195C72.3684 13.0728 74.5878 11.3235 77.7393 11.3235C80.8582 11.3235 82.9964 13.0728 83.0683 15.6195H80.8385C80.705 14.1465 79.4873 13.2573 77.7079 13.2573C75.9284 13.2573 74.7108 14.1569 74.7108 15.4663C74.7108 16.5098 75.4885 17.1238 77.391 17.5939L79.0172 17.9932C82.0457 18.7094 83.3039 19.9259 83.3039 22.0849C83.3039 24.8464 81.1043 26.5759 77.6057 26.5759C74.3324 26.5759 72.1223 24.887 71.9795 22.2172L74.2407 22.2173Z" fill="white"/>
<path d="M88.0707 13.0217V15.5685H90.1171V17.3177H88.0707V23.2504C88.0707 24.1721 88.4805 24.6015 89.3801 24.6015C89.623 24.5973 89.8656 24.5802 90.1067 24.5504V26.2893C89.7022 26.3648 89.2912 26.3991 88.8798 26.3914C86.701 26.3914 85.8513 25.5731 85.8513 23.486V17.3177H84.2866V15.5685H85.8513V13.0217H88.0707Z" fill="white"/>
<path d="M91.3027 20.9497C91.3027 17.5637 93.2969 15.436 96.4066 15.436C99.5268 15.436 101.512 17.5637 101.512 20.9497C101.512 24.3449 99.5372 26.4633 96.4066 26.4633C93.2771 26.4633 91.3027 24.3449 91.3027 20.9497ZM99.2609 20.9497C99.2609 18.627 98.1965 17.2561 96.4066 17.2561C94.6167 17.2561 93.5535 18.6374 93.5535 20.9497C93.5535 23.2817 94.6167 24.6421 96.4066 24.6421C98.1965 24.6421 99.2609 23.2817 99.2609 20.9497Z" fill="white"/>
<path d="M103.333 15.5683H105.44V17.4H105.491C105.633 16.8279 105.969 16.3224 106.44 15.9683C106.911 15.6142 107.49 15.4332 108.079 15.4557C108.334 15.4548 108.588 15.4825 108.836 15.5381V17.6043C108.515 17.5061 108.18 17.461 107.844 17.4708C107.523 17.4578 107.203 17.5144 106.906 17.6367C106.609 17.759 106.342 17.9441 106.123 18.1793C105.905 18.4145 105.739 18.6943 105.639 18.9994C105.539 19.3044 105.506 19.6276 105.542 19.9467V26.3298H103.333L103.333 15.5683Z" fill="white"/>
<path d="M119.021 23.1691C118.724 25.1226 116.821 26.4633 114.387 26.4633C111.257 26.4633 109.313 24.3658 109.313 21.0007C109.313 17.6252 111.267 15.436 114.294 15.436C117.272 15.436 119.144 17.4813 119.144 20.7442V21.501H111.543V21.6345C111.508 22.0306 111.558 22.4296 111.689 22.805C111.82 23.1804 112.029 23.5236 112.303 23.8119C112.577 24.1002 112.909 24.327 113.277 24.4771C113.645 24.6272 114.041 24.6973 114.438 24.6827C114.96 24.7316 115.484 24.6107 115.932 24.338C116.38 24.0653 116.727 23.6553 116.923 23.1691L119.021 23.1691ZM111.554 19.9572H116.934C116.954 19.6011 116.9 19.2448 116.775 18.9105C116.651 18.5762 116.459 18.2713 116.211 18.0149C115.963 17.7584 115.665 17.5559 115.335 17.4202C115.005 17.2844 114.651 17.2183 114.294 17.2259C113.935 17.2238 113.578 17.2929 113.245 17.4293C112.912 17.5657 112.61 17.7666 112.355 18.0206C112.1 18.2745 111.898 18.5764 111.761 18.9088C111.623 19.2412 111.553 19.5975 111.554 19.9572Z" fill="white"/>
<path d="M33.9646 0.459464C34.4277 0.426231 34.8925 0.496193 35.3252 0.664304C35.758 0.832415 36.1481 1.09448 36.4674 1.43161C36.7866 1.76873 37.0271 2.17251 37.1714 2.61381C37.3157 3.05511 37.3602 3.52294 37.3018 3.98355C37.3018 6.24936 36.0772 7.5518 33.9646 7.5518H31.4028V0.459464H33.9646ZM32.5044 6.54879H33.8416C34.1725 6.56857 34.5037 6.51431 34.811 6.38997C35.1183 6.26562 35.394 6.07431 35.6181 5.82997C35.8421 5.58563 36.0088 5.29441 36.1061 4.9775C36.2034 4.66059 36.2289 4.32597 36.1805 3.998C36.2254 3.67133 36.1974 3.33878 36.0986 3.0242C35.9998 2.70961 35.8326 2.42077 35.6091 2.17837C35.3855 1.93598 35.1112 1.74603 34.8056 1.62213C34.5 1.49823 34.1708 1.44345 33.8416 1.46172H32.5044V6.54879Z" fill="white"/>
<path d="M38.5466 4.87327C38.513 4.52153 38.5532 4.16665 38.6647 3.83137C38.7763 3.4961 38.9567 3.18784 39.1943 2.92636C39.432 2.66489 39.7217 2.45597 40.0448 2.313C40.3679 2.17004 40.7174 2.09619 41.0707 2.09619C41.424 2.09619 41.7735 2.17004 42.0966 2.313C42.4197 2.45597 42.7094 2.66489 42.9471 2.92636C43.1847 3.18784 43.3651 3.4961 43.4767 3.83137C43.5882 4.16665 43.6284 4.52153 43.5948 4.87327C43.6291 5.22537 43.5893 5.58074 43.4781 5.91656C43.3668 6.25238 43.1865 6.5612 42.9488 6.82319C42.7111 7.08518 42.4212 7.29454 42.0978 7.43781C41.7743 7.58108 41.4245 7.65509 41.0707 7.65509C40.7169 7.65509 40.3671 7.58108 40.0436 7.43781C39.7202 7.29454 39.4303 7.08518 39.1926 6.82319C38.9548 6.5612 38.7746 6.25238 38.6633 5.91656C38.5521 5.58074 38.5123 5.22537 38.5466 4.87327ZM42.5083 4.87327C42.5083 3.71309 41.9871 3.03462 41.0724 3.03462C40.1543 3.03462 39.6378 3.71309 39.6378 4.87328C39.6378 6.04276 40.1543 6.716 41.0724 6.716C41.9871 6.71598 42.5083 6.0381 42.5083 4.87327Z" fill="white"/>
<path d="M50.3047 7.55176H49.2089L48.1027 3.60979H48.0192L46.9176 7.55176H45.8323L44.3569 2.19946H45.4283L46.3871 6.28358H46.4661L47.5665 2.19946H48.5798L49.6802 6.28358H49.7638L50.7179 2.19946H51.7742L50.3047 7.55176Z" fill="white"/>
<path d="M53.0151 2.19941H54.032V3.04966H54.1109C54.2448 2.74428 54.4707 2.48828 54.757 2.31735C55.0433 2.14642 55.3758 2.06907 55.7081 2.09609C55.9685 2.07651 56.23 2.11578 56.4732 2.21098C56.7164 2.30618 56.9351 2.45489 57.113 2.64607C57.2909 2.83725 57.4235 3.06602 57.501 3.31541C57.5785 3.56481 57.5989 3.82845 57.5607 4.0868V7.55164H56.5044V4.35205C56.5044 3.49193 56.1306 3.06418 55.3494 3.06418C55.1726 3.05594 54.9961 3.08604 54.832 3.1524C54.6679 3.21876 54.5201 3.31982 54.3987 3.44865C54.2773 3.57748 54.1852 3.73103 54.1287 3.89878C54.0723 4.06653 54.0527 4.24451 54.0714 4.42053V7.5517H53.0151L53.0151 2.19941Z" fill="white"/>
<path d="M59.2437 0.110107H60.3V7.55178H59.2437V0.110107Z" fill="white"/>
<path d="M61.7683 4.87337C61.7346 4.52161 61.7749 4.16671 61.8865 3.83142C61.998 3.49613 62.1784 3.18786 62.4161 2.92638C62.6538 2.66489 62.9435 2.45597 63.2667 2.31301C63.5898 2.17004 63.9393 2.09619 64.2926 2.09619C64.646 2.09619 64.9955 2.17004 65.3186 2.31301C65.6418 2.45597 65.9315 2.66489 66.1692 2.92638C66.4068 3.18786 66.5872 3.49613 66.6988 3.83142C66.8104 4.16671 66.8506 4.52161 66.817 4.87337C66.8513 5.22548 66.8115 5.58086 66.7002 5.91668C66.5889 6.25249 66.4086 6.56131 66.1709 6.82329C65.9331 7.08528 65.6432 7.29462 65.3197 7.43789C64.9963 7.58115 64.6464 7.65516 64.2926 7.65516C63.9389 7.65516 63.589 7.58115 63.2655 7.43789C62.9421 7.29462 62.6522 7.08528 62.4144 6.82329C62.1767 6.56131 61.9964 6.25249 61.8851 5.91668C61.7738 5.58086 61.734 5.22548 61.7683 4.87337ZM65.7299 4.87337C65.7299 3.71319 65.2088 3.03472 64.2941 3.03472C63.3759 3.03472 62.8594 3.71319 62.8594 4.87338C62.8594 6.04286 63.376 6.7161 64.2941 6.7161C65.2088 6.71608 65.7299 6.0382 65.7299 4.87337Z" fill="white"/>
<path d="M67.9297 6.03815C67.9297 5.07471 68.647 4.51929 69.9204 4.44035L71.3702 4.35678V3.8948C71.3702 3.3295 70.9964 3.01029 70.2744 3.01029C69.6848 3.01029 69.2762 3.22678 69.1589 3.60519H68.1363C68.2443 2.68586 69.109 2.09619 70.3232 2.09619C71.665 2.09619 72.4219 2.7642 72.4219 3.8948V7.55179H71.405V6.79962H71.3214C71.1518 7.06943 70.9136 7.28938 70.6312 7.43702C70.3487 7.58466 70.0322 7.6547 69.7138 7.63998C69.4891 7.66335 69.262 7.63938 69.0471 7.5696C68.8323 7.49983 68.6344 7.38581 68.4663 7.23489C68.2983 7.08398 68.1637 6.89951 68.0712 6.69338C67.9788 6.48726 67.9306 6.26405 67.9297 6.03815ZM71.3702 5.5808V5.13333L70.0632 5.2169C69.3261 5.26623 68.9918 5.51696 68.9918 5.98881C68.9918 6.47052 69.4097 6.75085 69.9843 6.75085C70.1526 6.76789 70.3227 6.75089 70.4844 6.70086C70.646 6.65083 70.796 6.56879 70.9253 6.45963C71.0546 6.35046 71.1606 6.2164 71.237 6.06543C71.3135 5.91445 71.3588 5.74964 71.3702 5.5808Z" fill="white"/>
<path d="M73.8096 4.87333C73.8096 3.1821 74.679 2.11071 76.0313 2.11071C76.3658 2.09529 76.6978 2.17541 76.9884 2.34169C77.2791 2.50797 77.5164 2.75355 77.6726 3.04972H77.7515V0.110107H78.8078V7.55178H77.7957V6.70616H77.7121C77.5438 7.00033 77.2982 7.24285 77.0019 7.40745C76.7056 7.57206 76.37 7.65247 76.0313 7.63999C74.6697 7.64005 73.8096 6.56863 73.8096 4.87333ZM74.9007 4.87333C74.9007 6.00856 75.4358 6.69168 76.3308 6.69168C77.2211 6.69168 77.7713 5.99871 77.7713 4.87798C77.7713 3.76248 77.2153 3.05963 76.3308 3.05963C75.4416 3.05963 74.9007 3.74738 74.9007 4.87333Z" fill="white"/>
<path d="M83.1784 4.87327C83.1448 4.52153 83.185 4.16665 83.2966 3.83137C83.4081 3.4961 83.5885 3.18784 83.8262 2.92636C84.0638 2.66489 84.3535 2.45597 84.6766 2.313C84.9997 2.17004 85.3492 2.09619 85.7025 2.09619C86.0559 2.09619 86.4053 2.17004 86.7284 2.313C87.0516 2.45597 87.3412 2.66489 87.5789 2.92636C87.8166 3.18784 87.9969 3.4961 88.1085 3.83137C88.22 4.16665 88.2603 4.52153 88.2266 4.87327C88.2609 5.22537 88.2211 5.58074 88.1099 5.91656C87.9987 6.25238 87.8184 6.5612 87.5807 6.82319C87.3429 7.08518 87.053 7.29454 86.7296 7.43781C86.4061 7.58108 86.0563 7.65509 85.7025 7.65509C85.3488 7.65509 84.9989 7.58108 84.6755 7.43781C84.352 7.29454 84.0621 7.08518 83.8244 6.82319C83.5867 6.5612 83.4064 6.25238 83.2952 5.91656C83.1839 5.58074 83.1442 5.22537 83.1784 4.87327ZM87.1401 4.87327C87.1401 3.71309 86.6189 3.03462 85.7043 3.03462C84.7861 3.03462 84.2696 3.71309 84.2696 4.87328C84.2696 6.04276 84.7861 6.716 85.7043 6.716C86.619 6.71598 87.1401 6.0381 87.1401 4.87327Z" fill="white"/>
<path d="M89.6436 2.19941H90.6604V3.04966H90.7393C90.8732 2.74428 91.0991 2.48828 91.3854 2.31735C91.6717 2.14642 92.0042 2.06907 92.3365 2.09609C92.597 2.07651 92.8585 2.11578 93.1017 2.21098C93.3448 2.30618 93.5635 2.45489 93.7414 2.64607C93.9193 2.83725 94.052 3.06602 94.1295 3.31541C94.207 3.56481 94.2273 3.82845 94.1891 4.0868V7.55164H93.1328V4.35205C93.1328 3.49193 92.7591 3.06418 91.9779 3.06418C91.801 3.05594 91.6245 3.08604 91.4604 3.1524C91.2963 3.21876 91.1485 3.31982 91.0271 3.44865C90.9058 3.57748 90.8137 3.73103 90.7572 3.89878C90.7007 4.06653 90.6811 4.24451 90.6999 4.42053V7.5517H89.6436V2.19941Z" fill="white"/>
<path d="M100.158 0.866943V2.22388H101.318V3.11361H100.158V5.86579C100.158 6.42644 100.389 6.67194 100.915 6.67194C101.05 6.67151 101.184 6.66337 101.318 6.64756V7.52742C101.128 7.56135 100.936 7.57941 100.743 7.58139C99.5684 7.58139 99.1007 7.16815 99.1007 6.13624V3.11356H98.251V2.22383H99.1007V0.866943H100.158Z" fill="white"/>
<path d="M102.761 0.110107H103.808V3.05962H103.891C104.032 2.75139 104.264 2.49394 104.556 2.32237C104.848 2.15079 105.186 2.07343 105.523 2.10083C105.782 2.08673 106.041 2.12998 106.282 2.2275C106.522 2.32502 106.738 2.4744 106.914 2.66498C107.09 2.85556 107.222 3.08265 107.3 3.33004C107.379 3.57744 107.401 3.83904 107.367 4.09618V7.55179H106.309V4.35677C106.309 3.50186 105.911 3.06889 105.165 3.06889C104.983 3.054 104.801 3.07896 104.63 3.14202C104.459 3.20508 104.304 3.30472 104.175 3.43397C104.047 3.56322 103.948 3.71895 103.887 3.89028C103.825 4.0616 103.801 4.24438 103.817 4.42583V7.55177H102.761L102.761 0.110107Z" fill="white"/>
<path d="M113.525 6.10673C113.382 6.59589 113.071 7.01902 112.647 7.30209C112.223 7.58517 111.713 7.71015 111.206 7.65518C110.854 7.66449 110.503 7.59695 110.179 7.45726C109.855 7.31756 109.566 7.10905 109.33 6.8462C109.095 6.58335 108.92 6.27246 108.817 5.9351C108.714 5.59774 108.686 5.242 108.734 4.89257C108.687 4.54206 108.716 4.18555 108.818 3.84719C108.921 3.50882 109.096 3.19648 109.33 2.93133C109.564 2.66618 109.852 2.4544 110.175 2.31033C110.498 2.16626 110.848 2.09327 111.202 2.09628C112.691 2.09628 113.589 3.11374 113.589 4.79446V5.16304H109.81V5.22223C109.793 5.41865 109.818 5.61635 109.882 5.80267C109.947 5.98899 110.049 6.1598 110.183 6.30417C110.318 6.44853 110.48 6.56326 110.662 6.641C110.843 6.71873 111.038 6.75775 111.235 6.75556C111.488 6.78589 111.744 6.7404 111.971 6.62485C112.197 6.50931 112.385 6.32895 112.509 6.10669L113.525 6.10673ZM109.81 4.38183H112.513C112.526 4.20219 112.502 4.02176 112.442 3.85212C112.381 3.68248 112.286 3.52739 112.161 3.39681C112.037 3.26623 111.887 3.16306 111.721 3.09391C111.555 3.02476 111.376 2.99117 111.196 2.9953C111.013 2.993 110.832 3.0273 110.662 3.09618C110.493 3.16505 110.34 3.26711 110.21 3.39633C110.081 3.52555 109.979 3.67931 109.91 3.84857C109.842 4.01782 109.807 4.19914 109.81 4.38183Z" fill="white"/>
</svg>
