<svg width="68" height="30" viewBox="0 0 68 30" fill="none" xmlns="http://www.w3.org/2000/svg">
<path d="M3.91108 13.6864C5.10051 14.8177 6.53378 15.5824 7.90758 16.3241C9.04944 16.9388 10.1259 17.5217 10.7979 18.1768C11.0419 18.3961 11.2329 18.6651 11.3573 18.9644C11.4817 19.2637 11.5364 19.5861 11.5175 19.9083C11.5401 20.4512 11.3572 20.9833 11.0033 21.4044C10.6495 21.8254 10.1491 22.1062 9.59658 22.1939C8.15141 22.4536 6.83114 21.4465 6.06396 19.5043L3.53343 20.4306C4.19654 22.1073 5.21649 23.3829 6.48026 24.1216C7.5627 24.7555 8.84628 24.9844 10.0902 24.7652C11.2662 24.5659 12.3303 23.9657 13.0908 23.0727C13.8513 22.1796 14.2583 21.0523 14.2383 19.8939C14.2383 16.7194 11.806 15.415 9.2338 14.027C6.73896 12.6793 4.15789 11.2854 4.15789 8.10808C4.15789 5.759 5.54358 3.85723 7.77972 3.14443C8.99036 2.76785 10.292 2.76785 11.5026 3.14443C12.8616 3.57853 14.0435 4.42029 14.8777 5.54834L17.0603 3.98709C15.8872 2.4143 14.231 1.24242 12.3293 0.639514C10.5742 0.0941205 8.68738 0.0941205 6.93224 0.639514C5.37915 1.12651 4.0181 2.06554 3.03387 3.32912C1.98338 4.71192 1.42782 6.39025 1.45192 8.10808C1.4405 9.15261 1.65324 10.188 2.07662 11.1484C2.5 12.1088 3.12473 12.9731 3.91108 13.6864Z" fill="white"/>
<path d="M15.4002 13.7305C14.0829 12.4434 12.4772 11.5777 11.0617 10.8158C10.0121 10.2386 9.01889 9.71053 8.43012 9.15933C8.26684 9.03471 8.13639 8.87422 8.04954 8.69109C7.96269 8.50796 7.92191 8.30742 7.93055 8.106C7.89834 7.784 7.98206 7.46112 8.16747 7.19227C8.35287 6.92342 8.62852 6.7252 8.94752 6.63133C9.70578 6.38892 10.9131 6.53321 11.82 7.72795L14.0026 6.16959C13.3009 5.22206 12.3077 4.51482 11.1658 4.1495C10.1697 3.84079 9.09918 3.84079 8.10302 4.1495C6.29806 4.72667 5.22162 6.21 5.22162 8.12331C5.21368 8.67581 5.32766 9.22356 5.55589 9.72977C5.78413 10.236 6.12133 10.6889 6.54486 11.0582C7.38936 11.8518 8.53419 12.4694 9.74742 13.1245C12.3493 14.5299 15.3021 16.1229 15.3021 19.9033C15.3234 21.3537 14.7942 22.7609 13.8153 23.8569C13.234 24.4977 12.5191 25.0113 11.7178 25.3635C10.9165 25.7158 10.0472 25.8987 9.16757 25.9001C8.02728 25.9015 6.90802 25.6023 5.92933 25.0344C4.44254 24.1686 3.28284 22.7257 2.5335 20.8239L0 21.7358C0.966415 24.1859 2.5335 26.0964 4.53175 27.2594C5.93016 28.0774 7.53176 28.5104 9.16459 28.5118C9.70528 28.5126 10.2449 28.4643 10.7763 28.3675C12.7455 28.0155 14.5349 27.0292 15.8552 25.5682C17.3188 23.8986 18.084 21.757 17.9998 19.5664C17.9156 17.3758 16.988 15.2954 15.4002 13.7363V13.7305Z" fill="white"/>
<path d="M23.7148 0.8125H21.0059V27.9106H23.7148V0.8125Z" fill="white"/>
<path d="M24.793 0.8125V13.5218H40.208V0.8125H37.4991V10.8928H27.5019V0.8125H24.793Z" fill="white"/>
<path d="M43.9921 0.8125H41.2832V27.9106H43.9921V0.8125Z" fill="white"/>
<path d="M40.208 27.9106V14.5664H24.793V27.9106H27.5019V17.1954H37.4991V27.9106H40.208Z" fill="white"/>
<path d="M50.7382 4.42188H48.0293V27.9098H50.7382V4.42188Z" fill="white"/>
<path d="M58.2436 0.75H48.0293V3.37901H58.2436C59.146 3.36066 60.0432 3.51733 60.8825 3.83983C61.7218 4.16232 62.4863 4.64416 63.1312 5.25709C63.7762 5.87002 64.2885 6.60173 64.6383 7.40932C64.9881 8.21691 65.1683 9.08414 65.1683 9.96018C65.1683 10.8362 64.9881 11.7034 64.6383 12.511C64.2885 13.3186 63.7762 14.0503 63.1312 14.6633C62.4863 15.2762 61.7218 15.758 60.8825 16.0805C60.0432 16.403 59.146 16.5597 58.2436 16.5413H51.8117V27.9058H54.5236V19.1732H58.2436C60.7609 19.1732 63.1752 18.2027 64.9552 16.4752C66.7352 14.7477 67.7353 12.4047 67.7353 9.96162C67.7353 7.51854 66.7352 5.17553 64.9552 3.44802C63.1752 1.72051 60.7609 0.75 58.2436 0.75Z" fill="white"/>
<path d="M63.9655 9.9627C63.9648 9.23431 63.8162 8.5132 63.5282 7.84055C63.2403 7.1679 62.8187 6.55687 62.2874 6.04236C61.7561 5.52784 61.1256 5.11992 60.4319 4.84188C59.7382 4.56383 58.9949 4.42112 58.2444 4.42188H51.8125V15.5035H58.2444C58.9949 15.5043 59.7382 15.3616 60.4319 15.0835C61.1256 14.8055 61.7561 14.3976 62.2874 13.883C62.8187 13.3685 63.2403 12.7575 63.5282 12.0849C63.8162 11.4122 63.9648 10.6911 63.9655 9.9627ZM54.5244 7.05377H58.2444C58.6461 7.04149 59.0463 7.10768 59.4212 7.24842C59.7961 7.38915 60.138 7.60156 60.4267 7.87302C60.7154 8.14449 60.9449 8.46948 61.1017 8.8287C61.2584 9.18792 61.3392 9.57404 61.3392 9.96414C61.3392 10.3542 61.2584 10.7404 61.1017 11.0996C60.9449 11.4588 60.7154 11.7838 60.4267 12.0553C60.138 12.3267 59.7961 12.5391 59.4212 12.6799C59.0463 12.8206 58.6461 12.8868 58.2444 12.8745H54.5244V7.05377Z" fill="white"/>
</svg>
