<svg width="55" height="24" viewBox="0 0 55 24" fill="none" xmlns="http://www.w3.org/2000/svg">
<g clip-path="url(#clip0_1133_5990)">
<path d="M3.13004 10.9493C4.08158 11.8543 5.2282 12.4661 6.32724 13.0595C7.24072 13.5512 8.10187 14.0176 8.6395 14.5416C8.83469 14.7171 8.98751 14.9323 9.08703 15.1717C9.18655 15.4112 9.23031 15.669 9.21518 15.9268C9.23325 16.3612 9.08694 16.7869 8.80385 17.1237C8.52075 17.4605 8.12045 17.6852 7.67843 17.7553C6.5223 17.9631 5.46609 17.1574 4.85234 15.6036L2.82792 16.3447C3.35841 17.6861 4.17436 18.7065 5.18538 19.2975C6.05133 19.8046 7.0782 19.9877 8.07333 19.8123C9.01415 19.653 9.86542 19.1728 10.4738 18.4583C11.0822 17.7439 11.4078 16.842 11.3918 15.9153C11.3918 13.3758 9.44593 12.3322 7.38821 11.2218C5.39234 10.1436 3.32748 9.02851 3.32748 6.48666C3.32748 4.6074 4.43603 3.08598 6.22494 2.51574C7.19346 2.21448 8.23477 2.21448 9.20329 2.51574C10.2905 2.86302 11.2359 3.53643 11.9033 4.43887L13.6494 3.18987C12.7109 1.93164 11.386 0.994134 9.86461 0.511806C8.46051 0.0754917 6.95107 0.0754917 5.54697 0.511806C4.30449 0.901399 3.21565 1.65263 2.42827 2.66349C1.58788 3.76973 1.14343 5.11239 1.16271 6.48666C1.15357 7.32229 1.32377 8.15061 1.66247 8.91892C2.00117 9.68723 2.50096 10.3787 3.13004 10.9493Z" fill="#111111"/>
<path d="M12.3202 10.9838C11.2663 9.95415 9.98173 9.26155 8.84939 8.65206C8.00965 8.19032 7.21511 7.76784 6.74409 7.32688C6.61347 7.22718 6.50912 7.09879 6.43963 6.95228C6.37015 6.80578 6.33753 6.64535 6.34444 6.48421C6.31867 6.22662 6.38565 5.96831 6.53397 5.75323C6.6823 5.53815 6.90281 5.37958 7.15802 5.30448C7.76463 5.11055 8.73045 5.22598 9.456 6.18178L11.2021 4.93509C10.6407 4.17706 9.84618 3.61127 8.93265 3.31902C8.13573 3.07205 7.27934 3.07205 6.48242 3.31902C5.03844 3.78075 4.17729 4.96741 4.17729 6.49806C4.17094 6.94006 4.26213 7.37826 4.44471 7.78323C4.6273 8.1882 4.89706 8.55057 5.23589 8.84599C5.91149 9.48087 6.82735 9.97493 7.79793 10.499C9.87944 11.6233 12.2417 12.8977 12.2417 15.9221C12.2587 17.0823 11.8354 18.2081 11.0522 19.085C10.5872 19.5976 10.0153 20.0084 9.37424 20.2902C8.73321 20.572 8.03778 20.7184 7.33405 20.7195C6.42182 20.7206 5.52642 20.4812 4.74346 20.0269C3.55403 19.3343 2.62627 18.18 2.0268 16.6585L0 17.3881C0.773132 19.3482 2.0268 20.8765 3.6254 21.8069C4.74413 22.4614 6.02541 22.8078 7.33167 22.8089C7.76423 22.8095 8.19589 22.7708 8.62102 22.6934C10.1964 22.4118 11.6279 21.6228 12.6841 20.454C13.855 19.1183 14.4672 17.405 14.3999 15.6525C14.3325 13.9 13.5904 12.2358 12.3202 10.9884V10.9838Z" fill="#111111"/>
<path d="M18.9718 0.649414H16.8047V22.3279H18.9718V0.649414Z" fill="#111111"/>
<path d="M19.8359 0.649414V10.8168H32.168V0.649414H30.0008V8.71362H22.0031V0.649414H19.8359Z" fill="#111111"/>
<path d="M35.1964 0.649414H33.0293V22.3279H35.1964V0.649414Z" fill="#111111"/>
<path d="M32.168 22.3277V11.6523H19.8359V22.3277H22.0031V13.7555H30.0008V22.3277H32.168Z" fill="#111111"/>
<path d="M40.5929 3.53711H38.4258V22.3274H40.5929V3.53711Z" fill="#111111"/>
<path d="M46.5972 0.599609H38.4258V2.70281H46.5972C47.3192 2.68814 48.0369 2.81347 48.7083 3.07147C49.3798 3.32947 49.9914 3.71493 50.5073 4.20528C51.0233 4.69563 51.4332 5.28099 51.713 5.92706C51.9929 6.57313 52.137 7.26692 52.137 7.96775C52.137 8.66858 51.9929 9.36236 51.713 10.0084C51.4332 10.6545 51.0233 11.2399 50.5073 11.7302C49.9914 12.2206 49.3798 12.606 48.7083 12.864C48.0369 13.122 47.3192 13.2474 46.5972 13.2327H41.4517V22.3243H43.6212V15.3382H46.5972C48.6111 15.3382 50.5425 14.5618 51.9665 13.1798C53.3905 11.7978 54.1905 9.92336 54.1905 7.9689C54.1905 6.01444 53.3905 4.14004 51.9665 2.75803C50.5425 1.37601 48.6111 0.599609 46.5972 0.599609Z" fill="#111111"/>
<path d="M51.1736 7.96977C51.173 7.38706 51.0541 6.81017 50.8238 6.27205C50.5934 5.73393 50.2561 5.24511 49.8311 4.83349C49.4061 4.42188 48.9017 4.09554 48.3467 3.87311C47.7918 3.65068 47.1971 3.53651 46.5967 3.53711H41.4512V12.4024H46.5967C47.1971 12.403 47.7918 12.2889 48.3467 12.0664C48.9017 11.844 49.4061 11.5177 49.8311 11.106C50.2561 10.6944 50.5934 10.2056 50.8238 9.66749C51.0541 9.12937 51.173 8.55248 51.1736 7.96977ZM43.6207 5.64263H46.5967C46.9181 5.6328 47.2382 5.68575 47.5382 5.79834C47.8381 5.91093 48.1116 6.08085 48.3425 6.29803C48.5735 6.5152 48.7571 6.7752 48.8825 7.06257C49.0079 7.34995 49.0725 7.65884 49.0725 7.97093C49.0725 8.28301 49.0079 8.5919 48.8825 8.87928C48.7571 9.16666 48.5735 9.42665 48.3425 9.64382C48.1116 9.86099 47.8381 10.0309 47.5382 10.1435C47.2382 10.2561 46.9181 10.309 46.5967 10.2992H43.6207V5.64263Z" fill="#111111"/>
</g>
<defs>
<clipPath id="clip0_1133_5990">
<rect width="54.4" height="24" fill="white"/>
</clipPath>
</defs>
</svg>
