<svg width="30" height="30" viewBox="0 0 30 30" fill="none" xmlns="http://www.w3.org/2000/svg">
<mask id="path-1-inside-1_681_601" fill="white">
<rect x="2.72681" y="4.0918" width="24.5455" height="21.8182" rx="1.36364"/>
</mask>
<rect x="2.72681" y="4.0918" width="24.5455" height="21.8182" rx="1.36364" stroke="#CFCFCF" stroke-width="3" mask="url(#path-1-inside-1_681_601)"/>
<mask id="path-2-inside-2_681_601" fill="white">
<path d="M2.72681 5.45543C2.72681 4.70232 3.33733 4.0918 4.09044 4.0918H25.9086C26.6617 4.0918 27.2723 4.70232 27.2723 5.45543V10.2282H2.72681V5.45543Z"/>
</mask>
<path d="M2.72681 5.45543C2.72681 4.70232 3.33733 4.0918 4.09044 4.0918H25.9086C26.6617 4.0918 27.2723 4.70232 27.2723 5.45543V10.2282H2.72681V5.45543Z" stroke="#CFCFCF" stroke-width="3" mask="url(#path-2-inside-2_681_601)"/>
<path d="M8.43701 2.34375L8.43701 7.03125" stroke="#CFCFCF" stroke-width="1.5"/>
<path d="M21.562 2.34375L21.562 7.03125" stroke="#CFCFCF" stroke-width="1.5"/>
<path d="M20.1427 13.6367L13.6605 20.0653L10.7141 17.1432" stroke="#CFCFCF" stroke-width="1.5" stroke-linecap="round" stroke-linejoin="round"/>
</svg>
