<svg width="32" height="32" viewBox="0 0 32 32" fill="none" xmlns="http://www.w3.org/2000/svg">
<mask id="path-1-inside-1_681_539" fill="white">
<path fill-rule="evenodd" clip-rule="evenodd" d="M28.3627 16.3652C28.3627 17.3693 29.1767 18.1834 30.1808 18.1834C30.3702 18.1834 30.5449 18.324 30.5449 18.5134L30.5449 24.0008C30.5449 24.8042 29.8937 25.4554 29.0904 25.4554L2.90856 25.4554C2.10524 25.4554 1.45401 24.8042 1.45401 24.0008L1.45401 8.7281C1.45401 7.92478 2.10523 7.27356 2.90856 7.27356L29.0904 7.27356C29.8937 7.27356 30.5449 7.92478 30.5449 8.72811L30.5449 14.2169C30.5449 14.4063 30.3702 14.547 30.1808 14.547C29.1767 14.547 28.3627 15.361 28.3627 16.3652Z"/>
</mask>
<path d="M1.45401 8.7281L2.95401 8.7281L1.45401 8.7281ZM1.45401 24.0008L-0.0459888 24.0008L1.45401 24.0008ZM30.1808 16.6834C30.0051 16.6834 29.8627 16.5409 29.8627 16.3652L26.8627 16.3652C26.8627 18.1978 28.3483 19.6834 30.1808 19.6834L30.1808 16.6834ZM29.0449 18.5134L29.0449 24.0008L32.0449 24.0008L32.0449 18.5134L29.0449 18.5134ZM29.0904 23.9554L2.90856 23.9554L2.90856 26.9554L29.0904 26.9554L29.0904 23.9554ZM2.95401 24.0008L2.95401 8.7281L-0.0459881 8.7281L-0.0459888 24.0008L2.95401 24.0008ZM2.90856 8.77356L29.0904 8.77356L29.0904 5.77356L2.90856 5.77356L2.90856 8.77356ZM29.0449 8.72811L29.0449 14.2169L32.0449 14.2169L32.0449 8.72811L29.0449 8.72811ZM29.8627 16.3652C29.8627 16.1895 30.0051 16.047 30.1808 16.047L30.1808 13.047C28.3483 13.047 26.8627 14.5326 26.8627 16.3652L29.8627 16.3652ZM29.0449 14.2169C29.0449 13.8239 29.232 13.5112 29.447 13.3234C29.6528 13.1436 29.9124 13.047 30.1808 13.047L30.1808 16.047C31.002 16.047 32.0449 15.4186 32.0449 14.2169L29.0449 14.2169ZM29.0904 8.77356C29.0869 8.77356 29.0797 8.77255 29.0722 8.76937C29.0657 8.76661 29.0613 8.76327 29.0582 8.76025C29.0552 8.75722 29.0519 8.75278 29.0491 8.74626C29.0459 8.73874 29.0449 8.73162 29.0449 8.72811L32.0449 8.72811C32.0449 7.09635 30.7221 5.77356 29.0904 5.77356L29.0904 8.77356ZM2.95401 8.7281C2.95401 8.73161 2.95301 8.73873 2.94982 8.74626C2.94707 8.75278 2.94372 8.75722 2.9407 8.76025C2.93768 8.76327 2.93323 8.76661 2.92671 8.76937C2.91919 8.77255 2.91207 8.77356 2.90856 8.77356L2.90856 5.77356C1.27681 5.77356 -0.0459881 7.09635 -0.0459881 8.7281L2.95401 8.7281ZM2.90856 23.9554C2.91207 23.9554 2.91919 23.9564 2.92671 23.9596C2.93323 23.9623 2.93767 23.9657 2.9407 23.9687C2.94372 23.9717 2.94706 23.9762 2.94982 23.9827C2.95301 23.9902 2.95401 23.9973 2.95401 24.0008L-0.0459888 24.0008C-0.0459889 25.6326 1.27681 26.9554 2.90856 26.9554L2.90856 23.9554ZM29.0449 24.0008C29.0449 23.9973 29.0459 23.9902 29.0491 23.9827C29.0519 23.9762 29.0552 23.9717 29.0582 23.9687C29.0613 23.9657 29.0657 23.9623 29.0722 23.9596C29.0797 23.9564 29.0869 23.9554 29.0904 23.9554L29.0904 26.9554C30.7221 26.9554 32.0449 25.6326 32.0449 24.0008L29.0449 24.0008ZM30.1808 19.6834C29.9124 19.6834 29.6528 19.5868 29.447 19.407C29.232 19.2192 29.0449 18.9065 29.0449 18.5134L32.0449 18.5134C32.0449 17.3118 31.002 16.6834 30.1808 16.6834L30.1808 19.6834Z" fill="#CFCFCF" mask="url(#path-1-inside-1_681_539)"/>
<path d="M22.5449 24.0001L22.5449 8.7274" stroke="#CFCFCF" stroke-width="1.5" stroke-dasharray="1.45 1.45"/>
<circle cx="9.54278" cy="13.9062" r="1.09091" transform="rotate(-45 9.54278 13.9062)" stroke="#CFCFCF" stroke-width="1.5"/>
<circle cx="14.2674" cy="18.6368" r="1.09091" transform="rotate(-45 14.2674 18.6368)" stroke="#CFCFCF" stroke-width="1.5"/>
<path d="M8.51855 19.6486L15.2768 12.8903" stroke="#CFCFCF" stroke-width="1.5" stroke-linecap="round"/>
</svg>
