<svg width="48" height="31" viewBox="0 0 48 31" fill="none" xmlns="http://www.w3.org/2000/svg">
<mask id="path-1-inside-1_837_681" fill="white">
<path fill-rule="evenodd" clip-rule="evenodd" d="M44.4002 15.5C44.4002 17.1569 45.7434 18.5 47.4002 18.5C47.7122 18.5 48 18.7318 48 19.0438L48 28.5C48 29.6046 47.1046 30.5 46 30.5L2 30.5C0.89543 30.5 -1.2722e-06 29.6046 -1.22392e-06 28.5L-8.74228e-08 2.5C-3.91405e-08 1.39543 0.895432 0.499998 2 0.499998L46 0.5C47.1046 0.5 48 1.39543 48 2.5L48 11.9562C48 12.2682 47.7122 12.5 47.4002 12.5C45.7434 12.5 44.4002 13.8431 44.4002 15.5Z"/>
</mask>
<path d="M2 30.5L2 32L2 30.5ZM46 30.5L46 29L46 30.5ZM47.4002 17C46.5718 17 45.9002 16.3284 45.9002 15.5L42.9002 15.5C42.9002 17.9853 44.9149 20 47.4002 20L47.4002 17ZM46.5 19.0438L46.5 28.5L49.5 28.5L49.5 19.0438L46.5 19.0438ZM46 29L2 29L2 32L46 32L46 29ZM1.5 28.5L1.5 2.5L-1.5 2.5L-1.5 28.5L1.5 28.5ZM2 2L46 2L46 -1L2 -1L2 2ZM46.5 2.5L46.5 11.9562L49.5 11.9562L49.5 2.5L46.5 2.5ZM45.9002 15.5C45.9002 14.6716 46.5718 14 47.4002 14L47.4002 11C44.9149 11 42.9002 13.0147 42.9002 15.5L45.9002 15.5ZM46.5 11.9562C46.5 11.6245 46.6587 11.3654 46.8301 11.2156C46.9923 11.0738 47.193 11 47.4002 11L47.4002 14C48.3443 14 49.5 13.2802 49.5 11.9562L46.5 11.9562ZM46 2C46.2761 2 46.5 2.22386 46.5 2.5L49.5 2.5C49.5 0.567002 47.933 -1 46 -1L46 2ZM1.5 2.5C1.5 2.22386 1.72386 2 2 2L2 -1C0.0670052 -1 -1.5 0.567001 -1.5 2.5L1.5 2.5ZM2 29C1.72386 29 1.5 28.7761 1.5 28.5L-1.5 28.5C-1.5 30.433 0.0670038 32 2 32L2 29ZM46.5 28.5C46.5 28.7761 46.2761 29 46 29L46 32C47.933 32 49.5 30.433 49.5 28.5L46.5 28.5ZM47.4002 20C47.193 20 46.9923 19.9262 46.8301 19.7844C46.6587 19.6346 46.5 19.3755 46.5 19.0438L49.5 19.0438C49.5 17.7198 48.3443 17 47.4002 17L47.4002 20Z" fill="#111111" mask="url(#path-1-inside-1_837_681)"/>
<path d="M34.7998 28.0996L34.7998 2.89961" stroke="#111111" stroke-width="1.5" stroke-dasharray="2 2"/>
<circle cx="13.3455" cy="11.446" r="1.8" transform="rotate(-45 13.3455 11.446)" stroke="#111111" stroke-width="1.5"/>
<circle cx="21.1413" cy="19.25" r="1.8" transform="rotate(-45 21.1413 19.25)" stroke="#111111" stroke-width="1.5"/>
<path d="M11.6553 20.9219L22.8065 9.77069" stroke="#111111" stroke-width="1.5" stroke-linecap="round"/>
</svg>
