<svg width="30" height="36" viewBox="0 0 30 36" fill="none" xmlns="http://www.w3.org/2000/svg">
<path d="M21.0251 16.7068L28.368 3.98849C28.7822 3.27105 28.5364 2.35367 27.8189 1.93945C27.1015 1.52524 26.1841 1.77105 25.7699 2.48849L18.427 15.2068C18.0128 15.9242 18.2586 16.8416 18.976 17.2558C19.6935 17.67 20.6109 17.4242 21.0251 16.7068Z" stroke="#111111" stroke-width="1.5" stroke-miterlimit="10"/>
<path d="M19.1661 17.0762L9.08856 34.531" stroke="#111111" stroke-width="1.5" stroke-miterlimit="10"/>
<path d="M5.45425 25.6713L11.8136 29.8138L9.08839 34.534L2.32123 31.0979C1.53353 30.6973 1.24233 29.7186 1.68479 28.9523L3.27663 26.1951C3.71909 25.4288 4.71352 25.1894 5.45425 25.6713Z" stroke="#111111" stroke-width="1.5" stroke-miterlimit="10"/>
<path d="M8.89461 16.7068L1.5517 3.98849C1.13749 3.27105 1.3833 2.35367 2.10074 1.93945C2.81818 1.52524 3.73557 1.77105 4.14978 2.48849L11.4927 15.2068C11.9069 15.9242 11.6611 16.8416 10.9436 17.2558C10.2262 17.67 9.30882 17.4242 8.89461 16.7068Z" stroke="#111111" stroke-width="1.5" stroke-miterlimit="10"/>
<path d="M10.7477 17.0762L20.8253 34.531" stroke="#111111" stroke-width="1.5" stroke-miterlimit="10"/>
<path d="M24.4608 25.6736L18.1001 29.8138L20.8253 34.5339L27.5925 31.0978C28.3802 30.6973 28.6714 29.7186 28.2289 28.9522L26.6371 26.1951C26.1946 25.4287 25.2015 25.1917 24.4608 25.6736Z" stroke="#111111" stroke-width="1.5" stroke-miterlimit="10"/>
<circle cx="14.9999" cy="6" r="3.25" stroke="#6C2EF3" stroke-width="1.5"/>
</svg>
