<svg width="30" height="30" viewBox="0 0 30 30" fill="none" xmlns="http://www.w3.org/2000/svg">
<path d="M19.1068 14.1171L24.1133 5.44554C24.3957 4.95638 24.2281 4.33089 23.739 4.04847C23.2498 3.76605 22.6243 3.93366 22.3419 4.42282L17.3354 13.0944C17.053 13.5835 17.2206 14.209 17.7097 14.4914C18.1989 14.7739 18.8244 14.6063 19.1068 14.1171Z" stroke="#CFCFCF" stroke-width="1.5" stroke-miterlimit="10"/>
<path d="M17.8396 14.3691L10.9685 26.2702" stroke="#CFCFCF" stroke-width="1.5" stroke-miterlimit="10"/>
<path d="M8.49112 20.2288L12.827 23.0532L10.9689 26.2715L6.35497 23.9287C5.8179 23.6556 5.61936 22.9883 5.92103 22.4658L7.00638 20.5859C7.30805 20.0634 7.98607 19.9002 8.49112 20.2288Z" stroke="#CFCFCF" stroke-width="1.5" stroke-miterlimit="10"/>
<path d="M10.8373 14.1171L5.83077 5.44554C5.54835 4.95638 5.71595 4.33089 6.20511 4.04847C6.69428 3.76605 7.31977 3.93366 7.60218 4.42282L12.6087 13.0944C12.8911 13.5835 12.7235 14.209 12.2344 14.4914C11.7452 14.7739 11.1197 14.6063 10.8373 14.1171Z" stroke="#CFCFCF" stroke-width="1.5" stroke-miterlimit="10"/>
<path d="M12.1006 14.3691L18.9717 26.2702" stroke="#CFCFCF" stroke-width="1.5" stroke-miterlimit="10"/>
<path d="M21.4501 20.2308L17.1133 23.0536L18.9714 26.2719L23.5854 23.9291C24.1224 23.656 24.321 22.9887 24.0193 22.4662L22.9339 20.5863C22.6323 20.0638 21.9552 19.9022 21.4501 20.2308Z" stroke="#CFCFCF" stroke-width="1.5" stroke-miterlimit="10"/>
<circle cx="15" cy="6.56055" r="2.0625" stroke="#CFCFCF" stroke-width="1.5"/>
</svg>
