<svg width="24" height="24" viewBox="0 0 24 24" fill="none" xmlns="http://www.w3.org/2000/svg">
<path d="M21.75 8.8125C21.75 14.7387 12.8061 19.8049 12.0507 20.2222C12.0154 20.2417 11.9846 20.2417 11.9493 20.2222C11.1939 19.8049 2.25 14.7387 2.25 8.8125C2.25 7.46984 2.78337 6.18218 3.73277 5.23277C4.68218 4.28337 5.96984 3.75 7.3125 3.75C9.32592 3.75 11.0648 4.79309 11.8806 6.48212C11.9273 6.57883 12.0727 6.57883 12.1194 6.48212C12.9352 4.79309 14.6741 3.75 16.6875 3.75C18.0302 3.75 19.3178 4.28337 20.2672 5.23277C21.2166 6.18218 21.75 7.46984 21.75 8.8125Z" stroke="#111111" stroke-width="2"/>
</svg>
