<svg width="179" height="28" viewBox="0 0 179 28" fill="none" xmlns="http://www.w3.org/2000/svg">
<g clip-path="url(#clip0_1564_9812)">
<path d="M60.3911 14.6365C59.881 14.3815 59.371 14.0755 58.912 13.7694C58.453 13.4124 58.045 13.0554 57.637 12.6984C57.28 12.3414 56.9229 11.9334 56.6679 11.5254C56.4129 11.1174 56.1579 10.7603 56.0559 10.4033C55.9029 10.7603 55.6989 11.1684 55.3929 11.5764C55.0869 11.9844 54.7809 12.3924 54.3729 12.8004C54.0158 13.2084 53.5568 13.6164 53.0978 13.9735C52.6388 14.3305 52.1288 14.6365 51.6188 14.8915L49.9867 12.8514C50.7007 12.5454 51.3127 12.1884 51.9248 11.7294C52.4858 11.2704 52.9958 10.7093 53.4038 10.0973C53.8118 9.48529 54.1178 8.82227 54.3729 8.10825C54.5769 7.39422 54.7299 6.62919 54.7299 5.86417V4.58912H57.382V6.01717C57.382 6.7822 57.484 7.49622 57.688 8.21025C57.892 8.87327 58.198 9.5363 58.606 10.0973C59.014 10.6583 59.473 11.1684 60.0851 11.6274C60.6461 12.0864 61.3091 12.4434 62.0231 12.6984L60.3911 14.6365ZM53.3018 16.3195H65.3382V23.9188H53.3018V16.3195ZM55.8519 18.6146V21.5727H62.8392V18.6146H55.8519ZM65.3892 15.5035H62.8392V4.0791H65.3892V8.87327H68.2453V11.2194H65.3892V15.5035Z" fill="#372E2C"/>
<path d="M79.3131 15.0443C78.8031 14.7893 78.293 14.4833 77.834 14.1772C77.375 13.8202 76.916 13.4632 76.559 13.1062C76.151 12.7492 75.845 12.3412 75.5389 11.9842C75.2329 11.6272 75.0289 11.2191 74.9269 10.9131C74.7739 11.2701 74.5699 11.6782 74.2639 12.1372C73.9579 12.5452 73.6519 13.0042 73.2439 13.4122C72.8359 13.8202 72.4278 14.2282 71.9688 14.6363C71.5098 15.0443 70.9998 15.3503 70.4898 15.6053L68.8067 13.5652C69.5207 13.2592 70.1838 12.9022 70.7448 12.3922C71.3568 11.8822 71.8158 11.3211 72.2748 10.7091C72.6828 10.0971 73.0399 9.38308 73.2439 8.66905C73.4479 7.90402 73.6009 7.139 73.6009 6.32297V4.79291H76.202V6.32297C76.202 7.95503 76.61 9.33208 77.375 10.4541C78.191 11.5762 79.3131 12.4432 80.8431 13.0552L79.3131 15.0443ZM78.5991 16.0133C79.6191 16.0133 80.5371 16.1153 81.3532 16.3193C82.1692 16.5233 82.8322 16.7783 83.3932 17.1354C83.9542 17.4924 84.3623 17.9514 84.6173 18.4104C84.8723 18.9204 85.0253 19.4814 85.0253 20.1445C85.0253 20.7565 84.8723 21.3175 84.6173 21.8275C84.3113 22.3375 83.9032 22.7456 83.3932 23.1026C82.8322 23.4596 82.1692 23.7146 81.3532 23.9186C80.5371 24.1226 79.6191 24.2246 78.5991 24.2246C77.579 24.2246 76.661 24.1226 75.845 23.9186C75.0289 23.7146 74.3659 23.4596 73.8559 23.1026C73.2949 22.7456 72.8868 22.3375 72.6318 21.8275C72.3258 21.3175 72.2238 20.7565 72.2238 20.1445C72.2238 19.5324 72.3768 18.9204 72.6318 18.4104C72.9378 17.9004 73.3459 17.4924 73.8559 17.1354C74.4169 16.7783 75.0799 16.5233 75.845 16.3193C76.661 16.0643 77.579 16.0133 78.5991 16.0133ZM78.5991 18.2574C77.324 18.2574 76.355 18.4104 75.6919 18.7674C75.0289 19.1244 74.7229 19.5324 74.7229 20.1445C74.7229 20.7055 75.0289 21.1645 75.6919 21.4705C76.355 21.7765 77.324 21.9805 78.5991 21.9805C79.8741 21.9805 80.8431 21.8275 81.5062 21.4705C82.1692 21.1135 82.4752 20.7055 82.4752 20.1445C82.4752 19.5834 82.1692 19.1244 81.5062 18.7674C80.8431 18.4104 79.8741 18.2574 78.5991 18.2574ZM82.4242 9.74009H78.9561V7.39401H82.4242V4.07889H84.9743V15.8093H82.4242V9.74009Z" fill="#372E2C"/>
<path d="M89.0052 11.1681H93.4934V7.85302H89.0052V5.50694H95.8905V13.5142H91.4023V17.3394C91.6573 17.3394 92.0144 17.3394 92.4734 17.3394C92.9324 17.3394 93.4424 17.2884 93.9524 17.2884C94.4624 17.2884 95.0235 17.2374 95.5335 17.1864C96.0435 17.1354 96.5025 17.0844 96.9615 17.0333L97.1655 19.3794C96.7065 19.4304 96.1965 19.4814 95.5845 19.5324C95.0235 19.5834 94.3604 19.6344 93.6974 19.6344C92.9834 19.6854 92.2694 19.6854 91.5043 19.6854C90.7393 19.6854 89.8723 19.7364 89.0563 19.7364V11.1681H89.0052ZM98.4406 13.6672H96.2985V11.3211H98.4406V4.3339H100.838V23.6126H98.4406V13.6672ZM102.011 4.07889H104.408V24.1736H102.011V4.07889Z" fill="#372E2C"/>
<path d="M108.892 13.3106H111.646L111.085 8.46538L113.737 8.21037L114.043 13.3106H117.256L117.664 8.21037L120.367 8.46538L119.704 13.3616H122.458V15.6566H116.95V19.0738H124.346V21.4198H107.005V19.0738H114.4V15.6566H108.892V13.3106ZM108.892 5.55827H122.509V7.85336H108.892V5.55827Z" fill="#372E2C"/>
<path d="M125.876 18.8693H143.064V21.2154H125.927V18.8693H125.876ZM141.125 16.6253C140.717 16.5232 140.258 16.3702 139.799 16.2172C139.34 16.0642 138.932 15.8602 138.524 15.6052C138.116 15.4012 137.708 15.1462 137.3 14.8912C136.892 14.6362 136.535 14.3812 136.178 14.0752C135.821 13.8202 135.515 13.5141 135.26 13.2591C135.005 13.0041 134.75 12.6981 134.546 12.4941C134.24 12.8511 133.883 13.2591 133.424 13.6671C132.965 14.0752 132.455 14.4832 131.894 14.8912C131.333 15.2482 130.721 15.6052 130.058 15.9112C129.395 16.2172 128.732 16.4722 128.018 16.6253L126.692 14.4322C127.457 14.3302 128.171 14.1262 128.885 13.8202C129.548 13.5651 130.211 13.2081 130.772 12.8511C131.333 12.4941 131.792 12.0861 132.2 11.6781C132.608 11.2701 132.863 10.862 133.016 10.454H127.865V8.20995H141.38V10.454H136.28C136.433 10.862 136.739 11.2701 137.096 11.6781C137.504 12.0861 137.963 12.4941 138.473 12.8511C139.034 13.2081 139.646 13.5141 140.309 13.8202C140.972 14.0752 141.686 14.3302 142.401 14.4322L141.125 16.6253ZM130.874 4.69083H138.065V6.98591H130.874V4.69083Z" fill="#372E2C"/>
<path d="M152.6 16.0643C152.192 15.8093 151.835 15.5033 151.478 15.1463C151.121 14.7893 150.764 14.4833 150.509 14.1262C150.203 13.7692 149.948 13.4122 149.744 13.1062C149.54 12.7492 149.387 12.4432 149.285 12.1372C149.183 12.4432 149.03 12.8002 148.775 13.1572C148.52 13.5142 148.265 13.9222 147.959 14.2793C147.653 14.6363 147.296 15.0443 146.939 15.4013C146.582 15.7583 146.174 16.0643 145.817 16.3193L144.032 14.5343C144.695 14.1772 145.256 13.7182 145.766 13.2082C146.276 12.6982 146.684 12.1372 147.041 11.5252C147.398 10.9131 147.653 10.2501 147.806 9.53608C147.959 8.82206 148.061 8.10803 148.061 7.343V5.14993H150.611V7.39401C150.611 8.97506 150.917 10.3011 151.58 11.4742C152.192 12.5962 153.161 13.5652 154.437 14.2793L152.6 16.0643ZM148.112 17.1354H150.611V21.2665H160.965V23.6126H148.112V17.1354ZM154.641 10.7091H152.09V8.46504H154.641V4.2829H157.038V18.2574H154.641V10.7091ZM158.364 4.07889H160.761V18.7674H158.364V4.07889Z" fill="#372E2C"/>
<path d="M164.587 5.55794H172.901V7.90402H167.086V11.0661H171.932V13.4122H167.086V17.1864C167.239 17.1864 167.494 17.1864 167.801 17.1864C168.107 17.1864 168.464 17.1354 168.821 17.1354C169.229 17.1354 169.637 17.0844 170.045 17.0844C170.504 17.0844 170.912 17.0333 171.371 16.9823C171.83 16.9313 172.238 16.9313 172.697 16.8803C173.105 16.8293 173.513 16.8293 173.87 16.7783L174.125 19.1244C173.513 19.2264 172.799 19.2774 171.983 19.3284C171.218 19.3794 170.351 19.4304 169.484 19.4814C168.617 19.5324 167.75 19.5834 166.882 19.5834C166.015 19.6344 165.199 19.6344 164.434 19.6344V5.55794H164.587ZM176.267 13.3612H173.309V10.9641H176.267V4.07889H178.817V24.1736H176.267V13.3612Z" fill="#372E2C"/>
<path d="M24.0814 17.29L24.9994 16.933C25.4074 17.086 25.8154 17.137 26.2744 17.188C26.4784 17.086 26.8864 17.137 26.9375 16.8309C27.7025 17.035 28.4165 16.7799 29.1815 16.984C29.4365 16.933 29.6405 16.831 29.8956 16.7799C30.0996 16.984 30.4056 16.6779 30.6096 16.882C31.0176 16.8309 31.1706 16.4739 31.6296 16.4229C31.9356 16.4739 32.2416 16.5249 32.5477 16.4739C33.0067 16.6269 33.4147 16.7289 33.8737 16.882C34.4857 16.7289 35.1997 16.7289 35.7608 16.4739C36.2198 16.5759 36.6788 16.7289 37.1888 16.6779C37.3418 16.6779 37.4948 16.7289 37.5458 16.882C37.9538 16.882 38.3619 16.882 38.7189 16.6779C39.0249 16.933 39.5859 16.6269 39.7899 16.984C40.4019 17.035 41.014 17.239 41.677 17.239C43.003 17.647 44.3801 18.004 45.8081 18.259C45.9101 18.208 46.0631 18.208 46.1651 18.157C46.0631 18.004 46.0121 17.902 45.9101 17.749C45.7571 17.851 45.6041 17.8 45.4511 17.698C45.4001 17.596 45.3491 17.545 45.2981 17.443C45.0431 17.443 44.8391 17.188 44.5841 17.341C44.2271 17.29 44.0231 17.086 43.7171 16.984C43.666 16.6269 43.054 16.6779 42.901 16.4229C42.595 16.2699 42.238 16.3209 41.932 16.2189C41.677 15.9639 41.32 15.7599 41.065 15.5559C40.6569 15.4539 40.1979 15.4539 39.7899 15.3009C39.7899 15.0969 39.3309 15.1479 39.3309 14.9439C38.4639 14.8929 37.6988 14.5359 36.9338 14.2299C36.8318 14.2809 36.6788 14.2809 36.5768 14.3319C36.1178 14.1789 35.7098 14.0769 35.2507 13.9238C35.1487 13.9748 34.9957 13.9748 34.8937 14.0258C34.1287 13.7708 33.3637 13.6178 32.5987 13.4648C32.4967 13.5158 32.3436 13.5158 32.2416 13.5668C31.7826 13.3628 31.2726 13.4648 30.8136 13.3628C30.7626 13.2098 30.6096 13.1588 30.4566 13.1588C30.2526 13.2098 30.0996 13.2608 29.8956 13.3118C29.7426 13.2608 29.5385 13.2098 29.3855 13.1588C29.1305 13.2098 28.9265 13.3118 28.6715 13.3628C28.3145 13.2608 27.9575 13.1588 27.6005 13.0568C27.2945 13.2098 26.9375 13.1588 26.6314 13.2098C26.3254 13.0568 25.9684 13.1078 25.6624 13.0058C25.0504 13.1588 24.2854 12.9548 23.6733 13.2608C23.3163 13.2608 23.1123 13.5668 22.7043 13.4138C22.6533 13.5158 22.6533 13.6178 22.4493 13.6688C22.2453 13.6178 22.0923 13.5668 21.8883 13.5158C21.8883 13.5158 21.4293 13.8218 21.1742 13.7198C21.1232 13.9748 20.7662 13.9748 20.5112 14.0769C19.8992 14.0259 19.2872 13.8218 18.7262 13.6688C18.5222 13.7198 18.3691 13.7708 18.1651 13.8218C18.1141 13.9238 18.0631 14.0769 17.9611 14.1789C17.5531 14.1789 17.1451 14.2299 16.7881 14.3829C16.4821 14.3319 16.1761 14.2809 15.8701 14.3319C15.105 14.1279 14.646 14.7909 13.881 14.5869C13.626 14.7399 13.167 14.6379 13.065 14.9949C12.4529 15.2499 11.6879 15.3009 10.9739 15.4539C10.9229 15.5559 10.8719 15.7089 10.7699 15.8109C9.95385 15.8109 9.13782 15.8619 8.32179 16.0659C8.06678 16.2189 8.47479 16.4229 8.21978 16.5759C7.76077 16.5759 7.60776 16.933 7.19975 17.035C7.14875 17.137 7.09774 17.29 6.99574 17.392C6.74073 17.443 6.48572 17.647 6.17971 17.494C5.9757 17.545 5.7207 17.545 5.7207 17.8C5.46569 17.851 5.21068 18.055 4.90467 17.851C4.85366 18.157 4.39465 18.361 4.34365 18.667C4.03763 18.769 3.73162 18.82 3.42561 18.922C3.47661 19.126 3.0176 19.126 3.0686 19.33C2.81359 19.177 2.66059 19.33 2.45658 19.33C2.30357 19.585 2.20157 19.8401 2.09957 20.0951C1.58955 20.4011 1.23253 20.7071 1.07953 21.1661C1.13053 21.8801 0.365504 22.3901 0.416506 23.1042C0.722516 23.1042 0.773518 23.3082 0.875522 23.4612C0.722516 23.7672 0.926524 24.1752 0.671515 24.4812C0.926524 24.8382 1.13053 25.1952 1.38554 25.5523C1.13053 25.7053 1.53855 25.9093 1.28354 26.0623C1.33454 26.3683 1.84456 26.3683 1.89556 26.6743C2.25257 26.7253 2.45658 26.9293 2.76259 27.0313C2.91559 26.7763 3.0686 26.9803 3.32361 27.0313C3.83363 26.7253 3.78263 26.2153 4.08864 25.8583C4.49665 25.8583 4.49665 25.5013 4.90467 25.4503C5.15968 24.9402 5.41468 24.3792 5.8227 23.9202C6.02671 23.8692 6.17971 23.8182 6.38372 23.7672C6.58773 23.3592 6.74073 22.9512 7.14875 22.5942C7.45476 22.4922 7.76077 22.4411 8.06678 22.3391C8.21978 22.3901 8.42379 22.4411 8.5768 22.4922C8.83181 22.4411 8.88281 22.1351 9.23982 22.1351C9.54583 21.6761 9.95385 21.2681 10.3619 20.8601C10.5659 20.8091 10.7189 20.7581 10.9229 20.7071C10.8719 20.5031 11.3819 20.5031 11.2799 20.2991C11.7389 20.0951 12.4019 20.1461 12.6569 19.7381C13.167 19.483 13.83 19.585 14.391 19.381C14.391 19.126 14.748 18.973 14.85 18.769C15.258 18.565 15.7171 18.82 16.1251 18.718C16.1251 18.361 16.8391 18.514 16.8391 18.208C16.9921 18.259 17.1451 18.31 17.2981 18.259C17.3491 18.412 17.5021 18.463 17.6551 18.463C17.9101 18.361 18.0631 18.157 18.2161 18.004C18.4201 17.953 18.5732 17.902 18.7772 17.851C19.0322 17.953 19.2872 18.004 19.5932 18.106C19.8992 17.953 20.4602 18.004 20.6132 17.647C21.1232 17.749 21.5313 17.494 22.0413 17.545C22.0923 17.494 22.0923 17.443 22.1433 17.341C22.6023 17.494 22.9083 17.188 23.3163 17.137L24.0814 17.29Z" fill="#372E2C" stroke="#F9F9F9" stroke-width="0.0683424" stroke-miterlimit="10"/>
<path d="M17.9658 5.30359C18.5779 6.27262 20.0059 5.96661 21.0769 4.69157C22.199 3.41652 22.607 1.58046 21.944 0.611423C21.332 -0.357612 19.9039 -0.0516009 18.8329 1.22344C17.7618 2.49849 17.3538 4.33456 17.9658 5.30359Z" fill="#372E2C" stroke="#F9F9F9" stroke-width="0.0683424" stroke-miterlimit="10"/>
<path d="M13.5718 3.31317C11.7357 0.253061 9.28762 -0.0529504 7.96158 0.967086C6.07451 2.39514 6.89054 4.69022 9.54263 5.86326C17.9069 9.63739 15.9689 15.1456 16.5809 22.9999C16.9379 27.59 18.468 27.896 19.641 27.896C20.814 27.896 21.9361 27.131 22.3951 22.9999C23.0581 16.4716 24.3842 12.4935 28.3623 8.10734C33.9725 1.78312 31.9324 -0.358961 28.5153 1.12009C25.6082 2.39514 22.4461 6.01627 20.355 6.9853C18.468 7.95433 15.0508 5.76126 13.5718 3.31317Z" fill="#372E2C" stroke="#F9F9F9" stroke-width="0.255009" stroke-miterlimit="10"/>
<path d="M16.7302 24.1747C18.8723 23.4607 22.6464 20.7576 21.2694 14.6373C19.9433 8.61912 11.069 7.44608 13.6191 3.36594C13.5681 3.31493 13.6701 3.41694 13.6191 3.36594C11.834 0.407831 9.43694 -0.204191 7.90689 0.968851C6.01982 2.3969 6.83585 4.69198 9.48795 5.86503C17.9032 9.63916 15.9652 15.1474 16.5772 23.0016C16.6282 23.4097 16.6792 23.8177 16.7302 24.1747Z" fill="#372E2C"/>
<path d="M13.6191 3.36594C11.069 7.44608 19.9433 8.61912 21.2694 14.6373C22.6464 20.7576 18.8723 23.4607 16.7302 24.1747C16.6792 23.8177 16.6282 23.4097 16.5772 23.0016C15.9652 15.1474 17.9032 9.63916 9.48795 5.86503C6.83585 4.69198 6.01982 2.3969 7.90689 0.968851C9.43694 -0.204191 11.834 0.407831 13.6191 3.36594ZM13.6191 3.36594C13.5681 3.31493 13.6701 3.41694 13.6191 3.36594Z" stroke="#F9F9F9" stroke-width="0.255009" stroke-miterlimit="10"/>
<path d="M27.2457 9.38508C26.6337 9.07907 25.9707 8.92606 25.2566 8.92606C22.9106 8.92606 20.9725 10.4561 20.5135 12.7002C17.9634 8.36504 11.3331 6.98799 13.6282 3.41787C15.1583 5.76395 18.3714 7.95703 20.2585 7.03899C22.3495 6.01896 25.5626 2.44883 28.4698 1.17379C31.8869 -0.356269 33.9269 1.83681 28.3167 8.11003C27.9597 8.51805 27.6027 8.92606 27.2457 9.38508Z" fill="#372E2C" stroke="#F9F9F9" stroke-width="0.255009" stroke-miterlimit="10"/>
</g>
<defs>
<clipPath id="clip0_1564_9812">
<rect width="178.557" height="28" fill="white" transform="translate(0.261719)"/>
</clipPath>
</defs>
</svg>
