<svg width="396" height="86" viewBox="0 0 396 86" fill="none" xmlns="http://www.w3.org/2000/svg">
<g clip-path="url(#clip0_879_11802)">
<path d="M131.36 59.3997L151.839 15.1035H159.194L131.36 73.6016L103.527 15.1035H110.882L131.36 59.3997Z" fill="white"/>
<path d="M196.758 48.918H177.977L187.481 26.8263L196.758 48.918ZM199.248 54.6664L205.81 70.3335H212.598L187.707 12.5117L162.137 70.3335H168.925L175.601 54.6664H199.248Z" fill="white"/>
<path d="M233.641 12.7363L276.861 57.8215V15.1033H283.084V72.8123L239.863 27.7272V70.2199H233.641V12.7363Z" fill="white"/>
<path d="M326.418 70.3329H320.195V20.8519H303.789V15.1035H342.937V20.8519H326.418V70.3329Z" fill="white"/>
<path d="M379.484 70.3329H373.261V20.8519H356.855V15.1035H396.003V20.8519H379.484V70.3329Z" fill="white"/>
<path d="M50.688 0L43.56 15.1035C58.8343 15.1035 71.28 27.502 71.28 42.7182C71.28 57.9345 58.8343 70.3329 43.56 70.3329C28.2857 70.3329 15.84 57.9345 15.84 42.7182C15.84 27.502 28.2857 15.1035 43.56 15.1035L36.3189 0C15.7269 3.38139 0 21.19 0 42.7182C0 66.6134 19.4606 86 43.4469 86C67.4331 86 86.8937 66.6134 86.8937 42.7182C86.8937 21.19 71.1669 3.38139 50.688 0Z" fill="#4CACE2"/>
</g>
<defs>
<clipPath id="clip0_879_11802">
<rect width="396" height="86" fill="white"/>
</clipPath>
</defs>
</svg>
