<svg width="147" height="32" viewBox="0 0 147 32" fill="none" xmlns="http://www.w3.org/2000/svg">
<g clip-path="url(#clip0_1564_9801)">
<path d="M48.7334 22.1027L56.3307 5.62038H59.0591L48.7334 27.3871L38.4078 5.62038H41.1361L48.7334 22.1027Z" fill="#221E1F"/>
<path d="M72.9957 18.2025H66.028L69.5538 9.9823L72.9957 18.2025ZM73.9191 20.3414L76.3536 26.171H78.872L69.6377 4.65596L60.1516 26.171H62.6701L65.1465 20.3414H73.9191Z" fill="#221E1F"/>
<path d="M86.6782 4.73955L102.712 21.5154V5.62028H105.021V27.0934L88.9867 10.3175V26.1288H86.6782V4.73955Z" fill="#221E1F"/>
<path d="M121.096 26.1709H118.788V7.75933H112.702V5.62041H127.225V7.75933H121.096V26.1709Z" fill="#221E1F"/>
<path d="M140.782 26.1709H138.474V7.75933H132.388V5.62041H146.911V7.75933H140.782V26.1709Z" fill="#221E1F"/>
<path d="M18.8055 0L16.1611 5.61992C21.8276 5.61992 26.4447 10.2333 26.4447 15.8952C26.4447 21.557 21.8276 26.1704 16.1611 26.1704C10.4946 26.1704 5.87746 21.557 5.87746 15.8952C5.87746 10.2333 10.4946 5.61992 16.1611 5.61992L13.4748 0C5.83549 1.25819 0.00109863 7.88467 0.00109863 15.8952C0.00109863 24.7864 7.22063 32 16.1191 32C25.0176 32 32.2372 24.7864 32.2372 15.8952C32.2372 7.88467 26.4028 1.25819 18.8055 0Z" fill="#4CACE2"/>
</g>
<defs>
<clipPath id="clip0_1564_9801">
<rect width="146.909" height="32" fill="white"/>
</clipPath>
</defs>
</svg>
