<svg width="33" height="20" viewBox="0 0 33 20" fill="none" xmlns="http://www.w3.org/2000/svg">
<g clip-path="url(#clip0_1049_4897)">
<path fill-rule="evenodd" clip-rule="evenodd" d="M12.6135 3.77808C13.0545 4.47264 14.0773 4.25331 14.8429 3.33941C15.6452 2.42551 15.9392 1.10341 15.4615 0.408843C15.0205 -0.285719 13.9977 -0.0663836 13.2321 0.847514C12.4665 1.76141 12.1725 3.08352 12.6135 3.77808ZM16.9978 12.3858L17.6532 12.1299C17.9472 12.2396 18.2411 12.2761 18.5657 12.3127C18.6116 12.2899 18.6716 12.2778 18.7338 12.2652C18.871 12.2375 19.0182 12.2078 19.0435 12.0568C19.3191 12.1299 19.584 12.1208 19.8489 12.1116C20.1138 12.1025 20.3787 12.0933 20.6543 12.1665C20.7461 12.1482 20.8288 12.1208 20.9115 12.0933C20.9942 12.0659 21.0769 12.0385 21.1687 12.0202C21.2422 12.0933 21.3341 12.0751 21.426 12.0568C21.5179 12.0385 21.6097 12.0202 21.6832 12.0933C21.8258 12.0756 21.9252 12.0063 22.0268 11.9354C22.1346 11.8601 22.2449 11.7832 22.4121 11.7643C22.6326 11.8009 22.853 11.8375 23.0674 11.8009C23.2327 11.8557 23.3873 11.9014 23.5419 11.9471L23.5419 11.9471L23.542 11.9471L23.5421 11.9471L23.5422 11.9471L23.5422 11.9472L23.5423 11.9472C23.6968 11.9929 23.8514 12.0385 24.0167 12.0933C24.1827 12.0521 24.3583 12.0263 24.5342 12.0005C24.8257 11.9578 25.1182 11.9149 25.3703 11.8009C25.4349 11.8152 25.4992 11.8308 25.5637 11.8465L25.5638 11.8466C25.8295 11.9113 26.0975 11.9765 26.3931 11.9471C26.5034 11.9471 26.6136 11.9837 26.6504 12.0933C26.9443 12.0933 27.2383 12.0933 27.4894 11.9471C27.5905 12.0309 27.7289 12.0302 27.8634 12.0295C28.0222 12.0287 28.1754 12.0279 28.255 12.1665C28.4394 12.1817 28.6226 12.2162 28.8084 12.2511C29.0671 12.2997 29.3306 12.3492 29.6086 12.3492C30.5579 12.6417 31.544 12.8976 32.573 13.0804C32.6097 13.0621 32.6556 13.0529 32.7016 13.0438C32.7475 13.0347 32.7934 13.0255 32.8302 13.0072C32.7934 12.9524 32.7659 12.9067 32.7383 12.861C32.7108 12.8153 32.6832 12.7696 32.6465 12.7148C32.5362 12.7879 32.426 12.7513 32.3157 12.6782C32.2973 12.6417 32.279 12.6143 32.2606 12.5868C32.2422 12.5594 32.2238 12.532 32.2055 12.4955C32.1335 12.4955 32.0672 12.4674 32.0021 12.4399C31.9009 12.3971 31.8028 12.3556 31.691 12.4223C31.5348 12.4001 31.4193 12.3375 31.3046 12.2754C31.2304 12.2352 31.1566 12.1952 31.0724 12.1665C31.0517 12.022 30.9022 11.9708 30.756 11.9207C30.6432 11.882 30.5325 11.844 30.4844 11.7643C30.3592 11.7021 30.2222 11.6869 30.0879 11.6721C29.9857 11.6608 29.885 11.6497 29.7923 11.6181C29.6799 11.5062 29.5399 11.4081 29.4075 11.3152L29.4075 11.3152C29.3235 11.2563 29.2426 11.1996 29.1737 11.1429C29.0548 11.1133 28.9309 11.0957 28.806 11.078L28.806 11.078C28.6221 11.0518 28.4362 11.0254 28.2612 10.9601C28.2612 10.887 28.1785 10.8596 28.0958 10.8322C28.0131 10.8047 27.9304 10.7773 27.9304 10.7042C27.3917 10.6724 26.904 10.4742 26.4229 10.2786L26.4227 10.2785C26.3515 10.2496 26.2805 10.2207 26.2094 10.1924C26.1726 10.2107 26.1267 10.2199 26.0808 10.229C26.0348 10.2381 25.9889 10.2473 25.9521 10.2655C25.7868 10.2107 25.6323 10.1651 25.4777 10.1194L25.4776 10.1194L25.4776 10.1193L25.4775 10.1193L25.4774 10.1193L25.4774 10.1193L25.4773 10.1193C25.3227 10.0736 25.1681 10.0279 25.0028 9.9731C24.9661 9.99138 24.9201 10.0005 24.8742 10.0097C24.8283 10.0188 24.7823 10.0279 24.7456 10.0462C24.1944 9.86343 23.6493 9.75376 23.098 9.6441C23.0613 9.66237 23.0153 9.67151 22.9694 9.68065C22.9235 9.68979 22.8775 9.69893 22.8408 9.71721C22.6426 9.62958 22.4334 9.62072 22.2264 9.61196C22.0879 9.6061 21.9505 9.60028 21.818 9.57098C21.7812 9.46132 21.671 9.42476 21.5607 9.42476C21.4872 9.44304 21.4229 9.46132 21.3586 9.4796C21.2943 9.49787 21.23 9.51615 21.1565 9.53443C21.1014 9.51615 21.0371 9.49787 20.9728 9.4796C20.9084 9.46132 20.8441 9.44304 20.789 9.42476C20.6971 9.44304 20.6145 9.47046 20.5318 9.49787C20.4491 9.52529 20.3664 9.55271 20.2745 9.57098L20.2742 9.5709C20.0171 9.49782 19.76 9.42473 19.509 9.35165C19.3628 9.42434 19.2005 9.43279 19.0452 9.44087C18.9663 9.44498 18.8891 9.44899 18.8169 9.46132C18.6917 9.39905 18.5546 9.38392 18.4203 9.36909C18.3181 9.35781 18.2174 9.34669 18.1248 9.31509C17.9515 9.35818 17.7622 9.36177 17.5694 9.36354C18.0018 8.49726 18.5316 7.66768 19.1865 6.83402C18.7723 6.63113 18.3296 6.52942 17.8447 6.52942C16.2483 6.52942 14.9403 7.55474 14.6064 9.06804C14.7411 9.29782 14.8685 9.62412 14.9629 9.89254C15.0153 10.0417 15.059 10.1772 15.0895 10.2754C15.1048 10.3245 15.1168 10.3644 15.1251 10.3921L15.1345 10.4241L15.137 10.4326L15.1376 10.4349L15.1378 10.4355L15.1379 10.4356L15.1379 10.4357L14.9906 10.4775L15.1379 10.4357L15.1391 10.44L15.1401 10.4443C15.6414 12.6777 15.206 14.3053 14.4354 15.4421C13.6683 16.5739 12.5783 17.2056 11.7872 17.47L11.7823 17.4716L11.7774 17.4729L11.7443 17.4816C12.1275 19.8271 13.0753 20 13.8203 20C14.6593 20 15.4678 19.4517 15.7924 16.4845C15.9535 14.9043 16.1683 13.532 16.4915 12.2863L16.9917 12.3858H16.9978ZM14.3149 9.16793L14.3133 9.16506C13.8694 8.40795 13.2444 7.77552 12.5736 7.21036C12.1581 6.86029 11.7348 6.54353 11.3268 6.23819L11.3268 6.23814C11.0698 6.04583 10.8189 5.85806 10.5798 5.66934C9.97401 5.19118 9.4504 4.7113 9.19068 4.17482C9.05893 3.90269 8.99406 3.61438 9.02069 3.30512C9.04724 2.99682 9.16385 2.67747 9.37999 2.34096L9.38414 2.33451L9.38891 2.3285L9.42861 2.27855C8.11678 0.145485 6.38679 -0.0612453 5.44778 0.661924C4.09422 1.68549 4.6822 3.3366 6.58085 4.17738C10.0661 5.75327 11.0558 7.74907 11.3601 10.2521C11.2726 10.248 11.1857 10.2509 11.0997 10.2655C10.8241 10.1924 10.6052 10.2747 10.3862 10.3569C10.1672 10.4392 9.94828 10.5214 9.67267 10.4483C9.6069 10.4876 9.52228 10.5034 9.43738 10.5193C9.2851 10.5478 9.13189 10.5765 9.0847 10.7408C8.78644 10.8644 8.44055 10.9211 8.08871 10.9788H8.0887L8.08869 10.9788C7.92035 11.0065 7.75064 11.0343 7.58415 11.0698C7.57547 11.087 7.5668 11.1063 7.55764 11.1267C7.528 11.1926 7.4933 11.2698 7.43715 11.3257C6.84918 11.3257 6.26734 11.3622 5.67936 11.5084C5.58749 11.5633 5.61505 11.6273 5.64261 11.6912C5.67018 11.7552 5.69774 11.8192 5.60587 11.874C5.41678 11.874 5.29976 11.9577 5.18041 12.043C5.09101 12.1069 5.00031 12.1717 4.87703 12.203C4.86835 12.2203 4.85968 12.2396 4.85052 12.2599C4.82088 12.3259 4.78618 12.403 4.73003 12.4589C4.6769 12.4695 4.62376 12.4892 4.56973 12.5093C4.43695 12.5586 4.29879 12.61 4.14206 12.532C4.11756 12.5381 4.09204 12.5432 4.06652 12.5483C3.93893 12.5736 3.81133 12.599 3.81133 12.7513C3.7628 12.761 3.71428 12.7783 3.66508 12.7958L3.66506 12.7959C3.52796 12.8447 3.38561 12.8955 3.22336 12.7879C3.20498 12.8976 3.11311 12.989 3.02124 13.0804C2.92937 13.1717 2.8375 13.2631 2.81913 13.3728C2.71114 13.4086 2.60316 13.4356 2.4959 13.4625C2.38414 13.4905 2.27316 13.5183 2.16378 13.5556C2.18216 13.6287 2.10866 13.6652 2.03516 13.7018C1.96167 13.7384 1.88817 13.7749 1.90654 13.848C1.78405 13.7749 1.69422 13.7993 1.60439 13.8237C1.55948 13.8358 1.51456 13.848 1.46557 13.848C1.35532 14.0308 1.28182 14.2136 1.20833 14.3964C0.840845 14.6157 0.589732 14.835 0.479487 15.164C0.497862 15.4199 0.369243 15.6393 0.240624 15.8586C0.112005 16.0779 -0.0166139 16.2973 0.00176026 16.5532C0.183124 16.5532 0.240171 16.6521 0.295608 16.7482C0.307568 16.769 0.319453 16.7896 0.332494 16.8091C0.284278 16.905 0.285267 17.0149 0.286271 17.1266C0.287563 17.2702 0.288882 17.4168 0.185501 17.5402C0.277371 17.6681 0.360054 17.7961 0.442737 17.924C0.525421 18.052 0.608105 18.1799 0.699977 18.3078C0.608106 18.3627 0.635667 18.4267 0.663229 18.4906C0.69079 18.5546 0.718351 18.6186 0.62648 18.6734C0.644854 18.7831 0.745912 18.8379 0.846969 18.8927C0.948027 18.9476 1.04909 19.0024 1.06746 19.1121C1.22364 19.1343 1.33918 19.1969 1.45383 19.259C1.52802 19.2992 1.60184 19.3392 1.68605 19.368C1.76318 19.2401 1.84031 19.2733 1.94261 19.3172C1.98653 19.3361 2.03509 19.357 2.09029 19.368C2.31291 19.2351 2.38718 19.0485 2.46016 18.8652C2.50765 18.746 2.5546 18.628 2.64151 18.5272C2.79375 18.5272 2.86715 18.4586 2.94336 18.3873C3.01433 18.321 3.08773 18.2524 3.22948 18.2347C3.25053 18.1929 3.27157 18.1505 3.29277 18.1079C3.45668 17.778 3.62993 17.4294 3.88482 17.1381C3.95829 17.1198 4.02257 17.1015 4.08685 17.0832L4.08694 17.0832L4.08703 17.0832C4.15131 17.0649 4.21559 17.0467 4.28905 17.0284C4.31173 16.9833 4.33353 16.9382 4.35526 16.8932L4.35529 16.8931C4.47445 16.6466 4.59166 16.404 4.84028 16.1876C4.94826 16.1518 5.05623 16.1248 5.16349 16.0979L5.16352 16.0979C5.27527 16.0699 5.38625 16.0421 5.49562 16.0048C5.55074 16.0231 5.61505 16.0414 5.67936 16.0597L5.67937 16.0597C5.74368 16.0779 5.80799 16.0962 5.8631 16.1145C5.94196 16.0988 5.99374 16.0495 6.04749 15.9982C6.119 15.9301 6.19399 15.8586 6.34083 15.8586C6.54964 15.547 6.82438 15.2682 7.0974 14.9912L7.14317 14.9447C7.21666 14.9264 7.28097 14.9081 7.34527 14.8899C7.40959 14.8716 7.4739 14.8533 7.5474 14.835C7.52948 14.7638 7.60764 14.7272 7.68394 14.6916C7.76415 14.6541 7.8423 14.6175 7.80464 14.5426C7.92131 14.491 8.05552 14.4622 8.18843 14.4336L8.18844 14.4336C8.43229 14.3812 8.67179 14.3297 8.79071 14.1405C8.98951 14.0416 9.21877 14.0176 9.45135 13.9933C9.64872 13.9726 9.84847 13.9517 10.034 13.8846C10.034 13.7747 10.1271 13.6912 10.2172 13.6103C10.277 13.5567 10.3355 13.5042 10.3648 13.4459C10.5304 13.3635 10.7057 13.3856 10.8798 13.4075C11.0148 13.4244 11.149 13.4413 11.2773 13.4094C11.2773 13.2903 11.3887 13.2504 11.5078 13.2196L11.51 13.3585C11.5251 14.3379 11.5412 15.3788 11.6276 16.4845C11.647 16.7327 11.6711 16.9634 11.6995 17.1779C12.4389 16.9285 13.4621 16.3331 14.1815 15.2718C14.9003 14.2113 15.3253 12.6721 14.8422 10.5151L14.8404 10.509L14.8314 10.4785C14.8235 10.4518 14.8119 10.4132 14.797 10.3654C14.7672 10.2698 14.7248 10.1379 14.6738 9.99311C14.5704 9.6988 14.4376 9.36715 14.3106 9.1707L14.3149 9.16793ZM9.60157 2.5633C10.7226 4.23445 13.0301 5.65403 14.3286 4.98771C15.0062 4.67409 15.8398 3.97168 16.7421 3.21138C17.8382 2.28786 19.0356 1.27893 20.1777 0.777685C22.6276 -0.288529 24.0914 1.25291 20.0675 5.79194C19.8251 6.06004 19.5964 6.32602 19.3806 6.5912L19.3438 6.57168L19.3438 6.57164L19.3403 6.56987C18.8774 6.33962 18.3822 6.22479 17.8447 6.22479C16.215 6.22479 14.8488 7.21288 14.3857 8.70641C13.9382 8.04202 13.3659 7.47865 12.7715 6.9779C12.3523 6.62472 11.9122 6.29514 11.497 5.98418L11.497 5.98417C11.2418 5.79303 10.996 5.60893 10.7702 5.4307C10.1641 4.95232 9.69281 4.50993 9.46658 4.04264C9.35535 3.81289 9.30447 3.57895 9.32581 3.33111C9.34586 3.0983 9.4304 2.84464 9.60157 2.5633Z" fill="white"/>
</g>
<defs>
<clipPath id="clip0_1049_4897">
<rect width="32.8302" height="20" fill="white"/>
</clipPath>
</defs>
</svg>
