<svg width="120" height="41" viewBox="0 0 120 41" fill="none" xmlns="http://www.w3.org/2000/svg">
<g clip-path="url(#clip0_1049_4980)">
<path d="M21.4968 38.6279C15.1882 39.753 8.87963 37.571 4.62821 32.8319C1.37106 29.218 -0.240364 24.5471 0.0339213 19.7057C0.308207 14.8644 2.46821 10.4321 6.10249 7.19318C8.60535 4.97706 11.6911 3.47692 15.0168 2.89732C21.3253 1.77222 27.6339 3.95424 31.8853 8.69332C38.5711 16.1599 37.9196 27.6496 30.4111 34.3321C27.8739 36.5482 24.7882 38.0142 21.4968 38.6279ZM15.1539 3.30645C12.0339 3.85196 9.11963 5.28391 6.75392 7.39774C-0.308936 13.7392 -0.926078 24.7516 5.41678 31.9455C9.46249 36.48 15.4282 38.5597 21.3596 37.5028C24.4796 36.9573 27.3939 35.5254 29.7596 33.4115C36.8225 27.0359 37.4396 16.0576 31.0968 8.86379C27.0511 4.32928 21.1196 2.24954 15.1539 3.30645Z" fill="#D7000F"/>
<path d="M41.1072 15.0012C42.2386 21.3086 40.0443 27.616 35.2786 31.8437C27.7357 38.5261 16.1129 37.8442 9.39289 30.3435C7.13004 27.8205 5.62146 24.7521 5.03861 21.445C3.90718 15.1375 6.10146 8.83014 10.8672 4.60247C18.41 -2.07997 30.0329 -1.43218 36.7529 6.06852C39.0157 8.59148 40.5243 11.694 41.1072 15.0012ZM5.75861 20.729C6.30718 23.8656 7.74718 26.7636 9.90718 29.1161C16.3186 36.1736 27.4615 36.7873 34.6957 30.4458C39.29 26.4227 41.4157 20.4903 40.3186 14.5239C39.77 11.4213 38.33 8.52329 36.17 6.1367C29.7586 -0.920773 18.65 -1.50037 11.4157 4.84113C6.82146 8.83014 4.69575 14.7966 5.75861 20.729Z" fill="#D7000F"/>
<path d="M24.2398 40.3324C17.7598 41.4916 11.3141 39.2754 6.92554 34.4C0.068399 26.7288 0.719827 14.9323 8.43411 8.11345C11.0055 5.82914 14.1941 4.29491 17.5884 3.68122C24.0684 2.52202 30.5141 4.73813 34.9027 9.61359C38.2284 13.3298 39.9084 18.103 39.5998 23.0808C39.3255 28.0585 37.097 32.6271 33.3598 35.9001C30.7884 38.1844 27.6341 39.7187 24.2398 40.3324ZM17.7255 4.80632C14.537 5.38592 11.5541 6.81787 9.11983 9.03399C1.85126 15.546 1.2684 26.8652 7.7484 34.1954C11.8627 38.8663 17.9655 41.0142 24.0684 39.9232C27.257 39.3436 30.2398 37.9117 32.6741 35.7297C39.9427 29.2177 40.5598 17.8985 34.0455 10.5682C29.9313 5.86324 23.8284 3.71531 17.7255 4.80632Z" fill="#D7000F"/>
<path d="M58.216 24.752H56.7417V23.8315C56.3303 24.2065 55.8846 24.4793 55.4389 24.6838C54.9932 24.8884 54.4789 24.9907 53.9646 24.9907C52.936 24.9907 52.1132 24.5815 51.496 23.7974C50.8789 23.0132 50.5703 21.8881 50.5703 20.4902C50.5703 19.7743 50.6732 19.0924 50.8789 18.5469C51.0846 17.9673 51.3589 17.49 51.736 17.0808C52.0789 16.7058 52.4903 16.399 52.9703 16.1944C53.4503 15.9898 53.9303 15.8875 54.4446 15.8875C54.8903 15.8875 55.3017 15.9216 55.6446 16.0239C55.9875 16.1262 56.3646 16.2626 56.7417 16.4671V12.7168H58.216V24.752ZM56.7417 22.6041V17.6604C56.3646 17.49 55.9875 17.3536 55.6789 17.2854C55.3703 17.2172 55.0275 17.1831 54.6503 17.1831C53.8275 17.1831 53.2103 17.4559 52.7303 18.0355C52.2846 18.6151 52.0446 19.3992 52.0446 20.4562C52.0446 21.479 52.216 22.2631 52.5589 22.8086C52.9017 23.3542 53.4846 23.6269 54.2389 23.6269C54.6503 23.6269 55.0617 23.5246 55.5075 23.3542C55.9875 23.1496 56.3989 22.9109 56.7417 22.6041Z" fill="white"/>
<path d="M70.6961 20.5926H64.3189C64.3189 21.104 64.3875 21.5813 64.5589 21.9905C64.7303 22.3655 64.9361 22.7064 65.2103 22.9451C65.4846 23.1837 65.7932 23.3883 66.1703 23.4906C66.5475 23.627 66.9589 23.6611 67.4046 23.6611C67.9875 23.6611 68.5361 23.5588 69.1532 23.3542C69.7703 23.1156 70.1132 22.911 70.4903 22.6382H70.5589V24.0361C69.7703 24.5816 68.5703 24.9566 67.4389 24.9566C65.9989 24.9566 64.8675 24.5816 64.0789 23.7974C63.256 23.0133 62.8789 21.9223 62.8789 20.4903C62.8789 19.0925 63.2561 17.9673 64.0446 17.115C64.8332 16.2967 65.8275 15.8535 67.0961 15.8535C68.2618 15.8535 69.1532 16.1945 69.8046 16.8763C70.4218 17.5582 70.7646 18.5129 70.7646 19.7743V20.5926H70.6961ZM69.2561 19.4675C69.2561 18.7174 69.0503 18.1037 68.6732 17.6946C68.2961 17.2855 67.7132 17.0809 66.9246 17.0809C66.1361 17.0809 65.5189 17.3196 65.0389 17.7628C64.5589 18.206 64.3189 18.7856 64.2503 19.4675H69.2561Z" fill="white"/>
<path d="M88.0099 24.7522H86.5356V19.8426C86.5356 19.4676 86.5356 19.1266 86.5014 18.7857C86.4671 18.4448 86.3985 18.172 86.2956 17.9674C86.1928 17.7288 85.9871 17.5924 85.7814 17.456C85.5756 17.3537 85.2328 17.2856 84.8214 17.2856C84.4099 17.2856 83.9985 17.3878 83.5871 17.5924C83.1756 17.797 82.7642 18.0697 82.3528 18.3766C82.3528 18.5129 82.3871 18.6493 82.3871 18.7857C82.3871 18.9562 82.3871 19.0925 82.3871 19.263V24.7863H80.9128V19.8426C80.9128 19.4676 80.8785 19.0925 80.8785 18.7516C80.8442 18.4107 80.7756 18.1379 80.6728 17.9333C80.5699 17.6947 80.3985 17.5583 80.1585 17.4219C79.9185 17.3196 79.6099 17.2515 79.1985 17.2515C78.7871 17.2515 78.4099 17.3537 77.9985 17.5583C77.5871 17.7629 77.2099 18.0015 76.7985 18.3084V24.7522H75.3242V16.1264H76.7985V17.081C77.2442 16.706 77.7242 16.3991 78.1699 16.1945C78.6156 15.99 79.0956 15.8877 79.6099 15.8877C80.1928 15.8877 80.7071 16.0241 81.1185 16.2627C81.5299 16.5014 81.8385 16.8423 82.0442 17.2856C82.6271 16.8082 83.1756 16.4332 83.6556 16.2286C84.1356 16.0241 84.6499 15.8877 85.2328 15.8877C86.1928 15.8877 86.8785 16.1604 87.3242 16.74C87.7699 17.3196 88.0099 18.1038 88.0099 19.1607V24.7522Z" fill="white"/>
<path d="M99.5305 24.7522H98.0905V23.8317C97.9534 23.934 97.7819 24.0363 97.5762 24.2067C97.3705 24.3772 97.1305 24.4795 96.9248 24.5818C96.6848 24.6841 96.4105 24.7863 96.1019 24.8886C95.7934 24.9568 95.4162 25.025 95.0048 25.025C94.2162 25.025 93.5648 24.7522 93.0162 24.2408C92.4676 23.7294 92.1934 23.0816 92.1934 22.2634C92.1934 21.6156 92.3305 21.0701 92.6048 20.661C92.8791 20.2518 93.2905 19.945 93.8048 19.7063C94.3191 19.4677 94.9705 19.3313 95.7248 19.229C96.4791 19.1608 97.2677 19.0926 98.1248 19.0585V18.8199C98.1248 18.4789 98.0562 18.2062 97.9534 18.0016C97.8505 17.797 97.6791 17.6266 97.4391 17.4902C97.2334 17.3879 96.9934 17.2856 96.6848 17.2515C96.4105 17.2174 96.1019 17.1834 95.7591 17.1834C95.3819 17.1834 94.9362 17.2175 94.4905 17.3197C94.0105 17.422 93.5305 17.5584 93.0162 17.763H92.9476V16.2969C93.2219 16.2287 93.6334 16.1264 94.1819 16.0583C94.7305 15.956 95.2448 15.9219 95.7591 15.9219C96.3762 15.9219 96.8905 15.956 97.3705 16.0583C97.8162 16.1605 98.2276 16.331 98.5362 16.5697C98.8791 16.8083 99.1191 17.1152 99.2905 17.4902C99.4619 17.8652 99.5648 18.3426 99.5648 18.8881V24.7522H99.5305ZM98.0905 22.6043V20.1836C97.6448 20.2177 97.1305 20.2518 96.5134 20.2859C95.8962 20.3541 95.4162 20.4223 95.0734 20.5246C94.6619 20.6269 94.3191 20.8314 94.0448 21.0701C93.7705 21.3087 93.6677 21.6497 93.6677 22.0929C93.6677 22.6043 93.8048 22.9453 94.1134 23.218C94.4219 23.4567 94.8676 23.593 95.4848 23.593C95.9991 23.593 96.4791 23.4908 96.8905 23.2862C97.3362 23.1498 97.7134 22.9112 98.0905 22.6043Z" fill="white"/>
<path d="M109.44 17.6942H109.371C109.165 17.626 108.96 17.5919 108.754 17.5919C108.548 17.5578 108.308 17.5578 108.034 17.5578C107.588 17.5578 107.142 17.6601 106.731 17.8647C106.319 18.0693 105.908 18.3079 105.531 18.6148V24.7517H104.057V16.1259H105.531V17.3874C106.114 16.9101 106.628 16.6032 107.074 16.3986C107.519 16.1941 107.965 16.0918 108.445 16.0918C108.685 16.0918 108.891 16.0918 108.994 16.1259C109.097 16.1259 109.268 16.16 109.508 16.1941V17.6942H109.44Z" fill="white"/>
<path d="M119.999 27.9227H118.525V23.7633C118.079 24.1383 117.634 24.4451 117.188 24.6156C116.742 24.8202 116.262 24.8884 115.748 24.8884C114.719 24.8884 113.896 24.4792 113.279 23.6951C112.662 22.9109 112.354 21.8199 112.354 20.422C112.354 19.672 112.456 19.0242 112.662 18.4446C112.868 17.865 113.142 17.3877 113.519 17.0126C113.862 16.6376 114.274 16.3307 114.719 16.1262C115.165 15.9216 115.679 15.8193 116.194 15.8193C116.674 15.8193 117.085 15.8875 117.428 15.9898C117.771 16.0921 118.148 16.2285 118.525 16.433L118.628 16.058H119.999V27.9227ZM118.525 22.5359V17.6604C118.114 17.4899 117.771 17.3536 117.462 17.2854C117.154 17.2172 116.811 17.1831 116.468 17.1831C115.611 17.1831 114.994 17.4559 114.548 18.0355C114.102 18.6151 113.896 19.3992 113.896 20.3879C113.896 21.4108 114.068 22.1608 114.445 22.7063C114.788 23.2518 115.371 23.5246 116.125 23.5246C116.536 23.5246 116.982 23.4223 117.394 23.2518C117.771 23.0814 118.182 22.8427 118.525 22.5359Z" fill="white"/>
</g>
<defs>
<clipPath id="clip0_1049_4980">
<rect width="120" height="40.6061" fill="white"/>
</clipPath>
</defs>
</svg>
