<svg width="120" height="19" viewBox="0 0 120 19" fill="none" xmlns="http://www.w3.org/2000/svg">
<g clip-path="url(#clip0_1049_5015)">
<path d="M40.4122 9.90483C40.0695 9.73227 39.7267 9.52519 39.4182 9.31812C39.1097 9.07653 38.8355 8.83494 38.5613 8.59336C38.3214 8.35177 38.0814 8.07567 37.9101 7.79957C37.7387 7.52347 37.5673 7.28188 37.4988 7.04029C37.3959 7.28188 37.2588 7.55798 37.0532 7.83408C36.8475 8.11018 36.6419 8.38628 36.3677 8.66238C36.1277 8.93848 35.8192 9.21458 35.5108 9.45617C35.2023 9.69776 34.8595 9.90483 34.5168 10.0774L33.4199 8.69689C33.8998 8.48982 34.3111 8.24823 34.7224 7.93762C35.0994 7.62701 35.4422 7.24737 35.7164 6.83322C35.9906 6.41907 36.1963 5.97041 36.3677 5.48723C36.5048 5.00406 36.6076 4.48637 36.6076 3.96868V3.10587H38.3899V4.07222C38.3899 4.58991 38.4585 5.07308 38.5956 5.55626C38.7327 6.00492 38.9383 6.45358 39.2126 6.83322C39.4868 7.21286 39.7952 7.55798 40.2066 7.86859C40.5836 8.17921 41.0292 8.42079 41.509 8.59336L40.4122 9.90483ZM35.6479 11.0437H43.737V16.1861H35.6479V11.0437ZM37.3617 12.5968V14.5985H42.0575V12.5968H37.3617ZM43.7712 10.4915H42.0575V2.76074H43.7712V6.00492H45.6907V7.59249H43.7712V10.4915Z" fill="white"/>
<path d="M53.1272 10.1809C52.7845 10.0084 52.4417 9.80129 52.1332 9.59422C51.8248 9.35263 51.5163 9.11104 51.2763 8.86946C51.0021 8.62787 50.7965 8.35177 50.5908 8.11018C50.3852 7.86859 50.2481 7.59249 50.1795 7.38542C50.0767 7.62701 49.9396 7.90311 49.7339 8.21372C49.5283 8.48982 49.3226 8.80043 49.0484 9.07653C48.7742 9.35263 48.5 9.62873 48.1915 9.90483C47.883 10.1809 47.5403 10.388 47.1975 10.5606L46.0664 9.18007C46.5463 8.97299 46.9919 8.73141 47.3689 8.38628C47.7802 8.04116 48.0887 7.66152 48.3972 7.24737C48.6714 6.83322 48.9113 6.35004 49.0484 5.86687C49.1855 5.34918 49.2883 4.83149 49.2883 4.27929V3.24392H51.0364V4.27929C51.0364 5.38369 51.3106 6.31553 51.8248 7.07481C52.3732 7.83408 53.1272 8.42079 54.1555 8.83494L53.1272 10.1809ZM52.6474 10.8367C53.3329 10.8367 53.9499 10.9057 54.4983 11.0437C55.0467 11.1818 55.4923 11.3544 55.8693 11.5959C56.2464 11.8375 56.5206 12.1481 56.6919 12.4588C56.8633 12.8039 56.9661 13.1835 56.9661 13.6322C56.9661 14.0463 56.8633 14.426 56.6919 14.7711C56.4863 15.1162 56.2121 15.3923 55.8693 15.6339C55.4923 15.8755 55.0467 16.0481 54.4983 16.1861C53.9499 16.3242 53.3329 16.3932 52.6474 16.3932C51.9619 16.3932 51.3449 16.3242 50.7965 16.1861C50.2481 16.0481 49.8025 15.8755 49.4597 15.6339C49.0827 15.3923 48.8085 15.1162 48.6371 14.7711C48.4314 14.426 48.3629 14.0463 48.3629 13.6322C48.3629 13.218 48.4657 12.8039 48.6371 12.4588C48.8428 12.1136 49.117 11.8375 49.4597 11.5959C49.8368 11.3544 50.2823 11.1818 50.7965 11.0437C51.3449 10.8712 51.9619 10.8367 52.6474 10.8367ZM52.6474 12.3552C51.7905 12.3552 51.1392 12.4588 50.6937 12.7003C50.2481 12.9419 50.0424 13.218 50.0424 13.6322C50.0424 14.0118 50.2481 14.3224 50.6937 14.5295C51.1392 14.7366 51.7905 14.8746 52.6474 14.8746C53.5043 14.8746 54.1555 14.7711 54.6011 14.5295C55.0467 14.2879 55.2524 14.0118 55.2524 13.6322C55.2524 13.2525 55.0467 12.9419 54.6011 12.7003C54.1555 12.4588 53.5043 12.3552 52.6474 12.3552ZM55.2181 6.59163H52.8873V5.00406H55.2181V2.76074H56.9319V10.6986H55.2181V6.59163Z" fill="white"/>
<path d="M59.6406 7.55798H62.6569V5.31467H59.6406V3.72709H64.2679V9.14556H61.2516V11.734C61.423 11.734 61.6629 11.734 61.9714 11.734C62.2799 11.734 62.6226 11.6995 62.9654 11.6995C63.3081 11.6995 63.6852 11.665 64.0279 11.6305C64.3707 11.5959 64.6792 11.5614 64.9877 11.5269L65.1248 13.1145C64.8163 13.149 64.4735 13.1835 64.0622 13.218C63.6852 13.2525 63.2396 13.2871 62.794 13.2871C62.3141 13.3216 61.8343 13.3216 61.3201 13.3216C60.806 13.3216 60.2233 13.3561 59.6749 13.3561V7.55798H59.6406ZM65.9817 9.24909H64.5421V7.66152H65.9817V2.9333H67.5926V15.979H65.9817V9.24909ZM68.381 2.76074H69.992V16.3587H68.381V2.76074Z" fill="white"/>
<path d="M73.0084 9.00762H74.8593L74.4823 5.72893L76.2647 5.55637L76.4703 9.00762H78.6297L78.9039 5.55637L80.7205 5.72893L80.2749 9.04213H82.1258V10.5952H78.424V12.9075H83.394V14.4951H71.7402V12.9075H76.7102V10.5952H73.0084V9.00762ZM73.0084 3.76172H82.1601V5.31478H73.0084V3.76172Z" fill="white"/>
<path d="M84.4219 12.7693H95.9729V14.3569H84.4561V12.7693H84.4219ZM94.6704 11.2507C94.3962 11.1817 94.0877 11.0782 93.7792 10.9746C93.4707 10.8711 93.1965 10.733 92.9223 10.5605C92.6481 10.4224 92.3739 10.2499 92.0997 10.0773C91.8255 9.90474 91.5855 9.73218 91.3456 9.52511C91.1057 9.35254 90.9 9.14547 90.7286 8.97291C90.5573 8.80034 90.3859 8.59327 90.2488 8.45522C90.0431 8.69681 89.8032 8.97291 89.4947 9.24901C89.1862 9.52511 88.8435 9.80121 88.4664 10.0773C88.0894 10.3189 87.6781 10.5605 87.2325 10.7676C86.7869 10.9746 86.3413 11.1472 85.8615 11.2507L84.9703 9.76669C85.4844 9.69767 85.9643 9.55962 86.4442 9.35254C86.8897 9.17998 87.3353 8.93839 87.7124 8.69681C88.0894 8.45522 88.3979 8.17912 88.6721 7.90302C88.9463 7.62692 89.1177 7.35082 89.2205 7.07472H85.7586V5.55617H94.8418V7.07472H91.4142C91.517 7.35082 91.7226 7.62692 91.9626 7.90302C92.2368 8.17912 92.5453 8.45522 92.888 8.69681C93.2651 8.93839 93.6764 9.14547 94.122 9.35254C94.5676 9.52511 95.0474 9.69767 95.5273 9.76669L94.6704 11.2507ZM87.7809 3.1748H92.6138V4.72787H87.7809V3.1748Z" fill="white"/>
<path d="M102.383 10.8712C102.109 10.6986 101.869 10.4915 101.629 10.25C101.389 10.0084 101.149 9.80129 100.978 9.55971C100.772 9.31812 100.601 9.07653 100.464 8.86946C100.327 8.62787 100.224 8.42079 100.155 8.21372C100.087 8.42079 99.984 8.66238 99.8127 8.90397C99.6413 9.14556 99.4699 9.42166 99.2642 9.66324C99.0586 9.90483 98.8187 10.1809 98.5787 10.4225C98.3388 10.6641 98.0646 10.8712 97.8247 11.0437L96.625 9.83581C97.0706 9.59422 97.4476 9.28361 97.7904 8.93848C98.1331 8.59336 98.4073 8.21372 98.6473 7.79957C98.8872 7.38542 99.0586 6.93676 99.1614 6.45358C99.2642 5.97041 99.3328 5.48723 99.3328 4.96954V3.48551H101.047V5.00406C101.047 6.07394 101.252 6.97127 101.698 7.76506C102.109 8.52433 102.76 9.18007 103.617 9.66324L102.383 10.8712ZM99.3671 11.5959H101.047V14.3915H108.005V15.979H99.3671V11.5959ZM103.754 7.24737H102.041V5.72882H103.754V2.89879H105.365V12.3552H103.754V7.24737ZM106.257 2.76074H107.868V12.7003H106.257V2.76074Z" fill="white"/>
<path d="M110.439 3.7616H116.026V5.34918H112.118V7.48896H115.375V9.07653H112.118V11.6305C112.221 11.6305 112.392 11.6305 112.598 11.6305C112.804 11.6305 113.044 11.5959 113.284 11.5959C113.558 11.5959 113.832 11.5614 114.106 11.5614C114.415 11.5614 114.689 11.5269 114.997 11.4924C115.306 11.4579 115.58 11.4579 115.889 11.4234C116.163 11.3889 116.437 11.3889 116.677 11.3544L116.848 12.9419C116.437 13.011 115.957 13.0455 115.409 13.08C114.895 13.1145 114.312 13.149 113.729 13.1835C113.147 13.218 112.564 13.2525 111.981 13.2525C111.398 13.2871 110.85 13.2871 110.336 13.2871V3.7616H110.439ZM118.288 9.04202H116.3V7.41993H118.288V2.76074H120.002V16.3587H118.288V9.04202Z" fill="white"/>
<path fill-rule="evenodd" clip-rule="evenodd" d="M11.8129 3.56041C12.2259 4.21495 13.1838 4.00825 13.9008 3.14701C14.6522 2.28577 14.9275 1.03983 14.4801 0.385288C14.0671 -0.269257 13.1092 -0.0625589 12.3922 0.798685C11.6753 1.65993 11.3999 2.90586 11.8129 3.56041ZM15.9189 11.6722L16.5327 11.431C16.808 11.5344 17.0833 11.5688 17.3874 11.6033C17.4303 11.5818 17.4865 11.5704 17.5447 11.5586C17.6732 11.5324 17.8111 11.5044 17.8348 11.3621C18.0929 11.431 18.341 11.4224 18.589 11.4138C18.8371 11.4052 19.0852 11.3966 19.3433 11.4655C19.4294 11.4483 19.5068 11.4224 19.5842 11.3966C19.6617 11.3708 19.7391 11.3449 19.8251 11.3277C19.894 11.3966 19.98 11.3794 20.066 11.3621C20.1521 11.3449 20.2381 11.3277 20.307 11.3966C20.4405 11.3799 20.5336 11.3145 20.6287 11.2477C20.7297 11.1768 20.833 11.1043 20.9895 11.0865C21.196 11.121 21.4025 11.1554 21.6033 11.121C21.7581 11.1726 21.9029 11.2157 22.0477 11.2587L22.0477 11.2588L22.0478 11.2588L22.0478 11.2588L22.0479 11.2588L22.0479 11.2588L22.048 11.2588C22.1928 11.3019 22.3376 11.3449 22.4924 11.3966C22.6478 11.3577 22.8122 11.3334 22.977 11.3091C23.2499 11.2688 23.5239 11.2284 23.76 11.121C23.8205 11.1344 23.8808 11.1492 23.9411 11.164L23.9413 11.164C24.1901 11.225 24.441 11.2865 24.7179 11.2588C24.8212 11.2588 24.9244 11.2932 24.9588 11.3966C25.2341 11.3966 25.5095 11.3966 25.7447 11.2588C25.8393 11.3378 25.9689 11.3371 26.0948 11.3364C26.2436 11.3356 26.3871 11.3349 26.4616 11.4655C26.6343 11.4799 26.8059 11.5124 26.9799 11.5453C27.2221 11.5911 27.4689 11.6377 27.7293 11.6377C28.6184 11.9133 29.5419 12.1545 30.5055 12.3267C30.5399 12.3095 30.5829 12.3009 30.626 12.2923C30.669 12.2837 30.712 12.2751 30.7464 12.2578C30.712 12.2062 30.6862 12.1631 30.6604 12.12C30.6346 12.077 30.6087 12.0339 30.5743 11.9822C30.4711 12.0511 30.3678 12.0167 30.2646 11.9478C30.2474 11.9133 30.2302 11.8875 30.213 11.8617C30.1958 11.8358 30.1785 11.81 30.1613 11.7755C30.0939 11.7755 30.0318 11.7491 29.9708 11.7232C29.8761 11.6829 29.7842 11.6438 29.6795 11.7066C29.5333 11.6857 29.425 11.6267 29.3177 11.5682C29.2482 11.5303 29.1791 11.4926 29.1002 11.4655C29.0808 11.3294 28.9408 11.2811 28.8039 11.2338C28.6983 11.1974 28.5945 11.1616 28.5495 11.0865C28.4323 11.0279 28.304 11.0136 28.1782 10.9996C28.0824 10.989 27.9881 10.9785 27.9014 10.9487C27.7961 10.8433 27.665 10.7508 27.5409 10.6633L27.5409 10.6633C27.4623 10.6078 27.3866 10.5544 27.322 10.5009C27.2107 10.473 27.0946 10.4564 26.9777 10.4397L26.9776 10.4397C26.8054 10.4151 26.6313 10.3902 26.4674 10.3286C26.4674 10.2597 26.3899 10.2339 26.3125 10.2081C26.2351 10.1822 26.1576 10.1564 26.1576 10.0875C25.6531 10.0575 25.1964 9.8707 24.7458 9.68643L24.7456 9.68635C24.679 9.65907 24.6124 9.63185 24.5458 9.6052C24.5114 9.62243 24.4684 9.63104 24.4254 9.63965C24.3824 9.64826 24.3393 9.65688 24.3049 9.6741C24.1501 9.62245 24.0053 9.5794 23.8606 9.53636L23.8605 9.53634L23.8605 9.53633L23.8604 9.5363L23.8603 9.53628L23.8603 9.53627L23.8602 9.53625C23.7154 9.49321 23.5707 9.45016 23.4158 9.39851C23.3814 9.41573 23.3384 9.42434 23.2954 9.43295C23.2524 9.44157 23.2094 9.45018 23.1749 9.4674C22.6587 9.29515 22.1482 9.19181 21.632 9.08846C21.5976 9.10568 21.5545 9.11429 21.5115 9.12291C21.4685 9.13152 21.4255 9.14013 21.3911 9.15736C21.2054 9.07477 21.0095 9.06643 20.8156 9.05817C20.686 9.05265 20.5573 9.04716 20.4331 9.01956C20.3987 8.91621 20.2955 8.88176 20.1922 8.88176C20.1234 8.89898 20.0632 8.91621 20.003 8.93343C19.9427 8.95066 19.8825 8.96788 19.8137 8.98511C19.762 8.96788 19.7018 8.95066 19.6416 8.93343C19.5814 8.91621 19.5211 8.89898 19.4695 8.88176C19.3835 8.89898 19.306 8.92482 19.2286 8.95066C19.1512 8.97649 19.0737 9.00233 18.9877 9.01956L18.9874 9.01948C18.7466 8.95061 18.5058 8.88173 18.2707 8.81286C18.1338 8.88136 17.9818 8.88932 17.8364 8.89694C17.7625 8.90081 17.6902 8.90459 17.6225 8.91621C17.5053 8.85753 17.3769 8.84327 17.2512 8.8293C17.1554 8.81866 17.0611 8.80819 16.9744 8.77841C16.8121 8.81901 16.6348 8.82239 16.4542 8.82407C16.8592 8.00769 17.3554 7.22591 17.9687 6.44028C17.5808 6.24908 17.1662 6.15323 16.7121 6.15323C15.217 6.15323 13.992 7.11948 13.6793 8.54559C13.8055 8.76213 13.9248 9.06964 14.0132 9.32259C14.0623 9.46315 14.1032 9.59082 14.1318 9.68335C14.1461 9.72964 14.1574 9.76723 14.1651 9.79332L14.1739 9.82354L14.1762 9.83155L14.1768 9.83367L14.177 9.83424L14.177 9.8344L14.1771 9.83446L14.0392 9.8738L14.1771 9.83449L14.1782 9.83847L14.1791 9.84252C14.6486 11.9473 14.2408 13.4811 13.5192 14.5524C12.8007 15.619 11.7799 16.2143 11.039 16.4635L11.0345 16.465L11.0299 16.4662L10.9989 16.4744C11.3578 18.6848 12.2454 18.8477 12.9431 18.8477C13.7289 18.8477 14.486 18.331 14.79 15.5348C14.9409 14.0456 15.1421 12.7524 15.4448 11.5784L15.9132 11.6722H15.9189ZM13.4064 8.63972L13.4048 8.63702C12.9891 7.92353 12.4037 7.32754 11.7755 6.79494C11.3864 6.46504 10.99 6.16653 10.6079 5.87878L10.6079 5.87874C10.3672 5.69751 10.1322 5.52055 9.90832 5.34271C9.34095 4.89209 8.85057 4.43986 8.60733 3.93429C8.48394 3.67784 8.4232 3.40614 8.44813 3.11469C8.473 2.82416 8.5822 2.52321 8.78463 2.20609L8.78851 2.20001L8.79298 2.19434L8.83016 2.14727C7.60159 0.137103 5.98141 -0.0577167 5.10201 0.623788C3.83436 1.58838 4.38501 3.14436 6.16316 3.93671C9.42715 5.4218 10.3541 7.30262 10.6391 9.66145C10.5571 9.65755 10.4757 9.66029 10.3952 9.6741C10.1371 9.6052 9.93203 9.68272 9.72697 9.76023C9.52191 9.83774 9.31685 9.91525 9.05873 9.84635C8.99713 9.88335 8.91789 9.89827 8.83838 9.91325C8.69577 9.9401 8.55227 9.96713 8.50808 10.1219C8.22875 10.2385 7.90481 10.2919 7.57531 10.3463H7.5753L7.57529 10.3463C7.41763 10.3723 7.2587 10.3986 7.10277 10.432C7.09465 10.4483 7.08652 10.4664 7.07794 10.4856C7.05019 10.5478 7.01769 10.6205 6.96511 10.6731C6.41445 10.6731 5.86954 10.7076 5.31889 10.8454C5.23285 10.8971 5.25866 10.9574 5.28447 11.0176C5.31028 11.0779 5.33609 11.1382 5.25005 11.1899C5.07297 11.1899 4.96337 11.2687 4.8516 11.3491C4.76788 11.4093 4.68293 11.4704 4.56747 11.4999C4.55935 11.5162 4.55123 11.5344 4.54265 11.5536C4.51489 11.6157 4.48239 11.6885 4.42981 11.7411C4.38005 11.751 4.33028 11.7697 4.27969 11.7886C4.15533 11.8351 4.02594 11.8834 3.87916 11.81C3.85622 11.8157 3.83231 11.8205 3.80841 11.8253C3.68892 11.8492 3.56942 11.8731 3.56942 12.0167C3.52397 12.0258 3.47853 12.0421 3.43245 12.0586L3.43244 12.0586C3.30404 12.1047 3.17072 12.1525 3.01877 12.0511C3.00156 12.1545 2.91552 12.2406 2.82948 12.3267C2.74344 12.4129 2.6574 12.499 2.64019 12.6023C2.53906 12.6361 2.43794 12.6616 2.33748 12.6869C2.23282 12.7132 2.12888 12.7394 2.02644 12.7746C2.04365 12.8435 1.97482 12.8779 1.90599 12.9124C1.83716 12.9468 1.76833 12.9813 1.78553 13.0502C1.67081 12.9813 1.58669 13.0042 1.50256 13.0272C1.46049 13.0387 1.41843 13.0502 1.37254 13.0502C1.2693 13.2224 1.20046 13.3947 1.13163 13.5669C0.787475 13.7736 0.552301 13.9803 0.449054 14.2904C0.466262 14.5315 0.345806 14.7382 0.225351 14.9449C0.104896 15.1516 -0.0155594 15.3583 0.00164853 15.5995C0.171501 15.5995 0.224927 15.6927 0.276846 15.7833C0.288046 15.8028 0.299177 15.8223 0.311391 15.8406C0.266234 15.931 0.26716 16.0346 0.268101 16.1398C0.269311 16.2752 0.270546 16.4133 0.173727 16.5296C0.259766 16.6502 0.337201 16.7708 0.414636 16.8913C0.492072 17.0119 0.569508 17.1325 0.655548 17.253C0.569509 17.3047 0.595321 17.365 0.621133 17.4253C0.646944 17.4856 0.672756 17.5459 0.586717 17.5975C0.603925 17.7009 0.698568 17.7526 0.793211 17.8042C0.887855 17.8559 0.982498 17.9076 0.999706 18.0109C1.14597 18.0319 1.25418 18.0909 1.36156 18.1494C1.43104 18.1873 1.50017 18.225 1.57904 18.2521C1.65127 18.1316 1.7235 18.1628 1.81931 18.2043C1.86044 18.2221 1.90592 18.2417 1.95761 18.2521C2.16611 18.1269 2.23566 17.9511 2.30401 17.7783C2.34849 17.6659 2.39245 17.5548 2.47385 17.4597C2.61642 17.4597 2.68517 17.3951 2.75654 17.3279C2.823 17.2654 2.89175 17.2008 3.0245 17.1842C3.04421 17.1447 3.06392 17.1048 3.08377 17.0646C3.23728 16.7538 3.39954 16.4252 3.63825 16.1507C3.70705 16.1334 3.76725 16.1162 3.82746 16.099L3.82754 16.099L3.82762 16.099C3.88782 16.0817 3.94802 16.0645 4.01682 16.0473C4.03806 16.0048 4.05847 15.9623 4.07883 15.9199L4.07885 15.9199C4.19045 15.6875 4.30022 15.4589 4.53306 15.255C4.63418 15.2212 4.73531 15.1957 4.83576 15.1704L4.83578 15.1704C4.94044 15.1441 5.04437 15.1179 5.14681 15.0827C5.19843 15.0999 5.25866 15.1172 5.31888 15.1344L5.3189 15.1344C5.37912 15.1516 5.43934 15.1688 5.49097 15.1861C5.56481 15.1713 5.61331 15.1248 5.66365 15.0765C5.73061 15.0123 5.80085 14.9449 5.93837 14.9449C6.13393 14.6513 6.39122 14.3886 6.64691 14.1275L6.68978 14.0837C6.75861 14.0664 6.81883 14.0492 6.87906 14.032C6.93929 14.0148 6.99952 13.9975 7.06836 13.9803C7.05158 13.9131 7.12477 13.8787 7.19623 13.8451C7.27135 13.8098 7.34454 13.7753 7.30926 13.7047C7.41853 13.6561 7.54422 13.6289 7.6687 13.602L7.66871 13.602C7.89708 13.5526 8.12138 13.5041 8.23276 13.3258C8.41893 13.2326 8.63364 13.21 8.85146 13.187C9.0363 13.1676 9.22337 13.1479 9.39716 13.0846C9.39716 12.981 9.48429 12.9024 9.56873 12.8261C9.62469 12.7756 9.67946 12.7262 9.7069 12.6712C9.862 12.5936 10.0262 12.6144 10.1892 12.635C10.3156 12.651 10.4413 12.6669 10.5616 12.6368C10.5616 12.5246 10.6659 12.487 10.7774 12.458L10.7794 12.5889C10.7936 13.5118 10.8087 14.4928 10.8896 15.5348C10.9077 15.7686 10.9303 15.9861 10.9569 16.1882C11.6493 15.9532 12.6076 15.3921 13.2814 14.3919C13.9546 13.3925 14.3526 11.942 13.9001 9.90928L13.8985 9.9035L13.8901 9.87475C13.8826 9.84967 13.8717 9.81324 13.8578 9.76821C13.8299 9.67808 13.7902 9.55383 13.7425 9.41736C13.6456 9.14001 13.5212 8.82747 13.4023 8.64233L13.4064 8.63972ZM8.99215 2.41562C10.042 3.99049 12.203 5.32827 13.4192 4.70034C14.0537 4.4048 14.8344 3.74285 15.6795 3.02636C16.7059 2.15604 17.8274 1.20525 18.897 0.732879C21.1914 -0.271906 22.5623 1.18073 18.7937 5.45824C18.5667 5.71089 18.3526 5.96155 18.1505 6.21145L18.116 6.19306L18.1161 6.19302L18.1127 6.19135C17.6792 5.97437 17.2155 5.86615 16.7121 5.86615C15.1858 5.86615 13.9064 6.79731 13.4726 8.20479C13.0536 7.57868 12.5175 7.04777 11.9609 6.57587C11.5683 6.24304 11.1561 5.93245 10.7673 5.63941L10.7673 5.63939C10.5283 5.45927 10.2981 5.28578 10.0866 5.11782C9.51895 4.667 9.07759 4.25009 8.86572 3.80973C8.76155 3.59321 8.7139 3.37275 8.73389 3.13919C8.75266 2.91979 8.83184 2.68075 8.99215 2.41562Z" fill="white"/>
</g>
<defs>
<clipPath id="clip0_1049_5015">
<rect width="120" height="18.9474" fill="white"/>
</clipPath>
</defs>
</svg>
