<svg width="28" height="22" viewBox="0 0 28 22" fill="none" xmlns="http://www.w3.org/2000/svg">
<g clip-path="url(#clip0_242_6198)">
<path d="M14.6222 13.0074L15.1783 12.7911C15.4255 12.8838 15.6727 12.9147 15.9507 12.9456C16.0743 12.8838 16.3215 12.9147 16.3524 12.7293C16.8158 12.8529 17.2483 12.6984 17.7118 12.822C17.8662 12.7911 17.9898 12.7293 18.1443 12.6984C18.2679 12.822 18.4533 12.6366 18.5768 12.7602C18.824 12.7293 18.9167 12.513 19.1947 12.4821C19.3801 12.513 19.5655 12.5439 19.7509 12.513C20.0289 12.6057 20.2761 12.6675 20.5542 12.7602C20.9249 12.6675 21.3574 12.6675 21.6973 12.513C21.9754 12.5748 22.2534 12.6675 22.5624 12.6366C22.6551 12.6366 22.7477 12.6675 22.7786 12.7602C23.0258 12.7602 23.273 12.7602 23.4892 12.6366C23.6746 12.7911 24.0145 12.6057 24.138 12.822C24.5088 12.8529 24.8795 12.9765 25.2812 12.9765C26.0845 13.2236 26.9187 13.4399 27.7837 13.5944C27.8455 13.5635 27.9382 13.5635 28 13.5326C27.9382 13.4399 27.9073 13.3781 27.8455 13.2854C27.7528 13.3472 27.6601 13.3163 27.5675 13.2545C27.5366 13.1927 27.5057 13.1618 27.4748 13.1C27.3203 13.1 27.1967 12.9456 27.0422 13.0383C26.826 13.0074 26.7024 12.8838 26.517 12.822C26.4861 12.6057 26.1154 12.6366 26.0227 12.4821C25.8373 12.3894 25.621 12.4203 25.4357 12.3585C25.2812 12.2041 25.0649 12.0805 24.9104 11.9569C24.6633 11.8951 24.3852 11.8951 24.138 11.8024C24.138 11.6788 23.86 11.7097 23.86 11.5862C23.3348 11.5553 22.8713 11.339 22.4079 11.1536C22.3461 11.1845 22.2534 11.1845 22.1916 11.2154C21.9136 11.1227 21.6664 11.0609 21.3883 10.9682C21.3265 10.9991 21.2339 10.9991 21.1721 11.03C20.7086 10.8755 20.2452 10.7829 19.7818 10.6902C19.72 10.7211 19.6273 10.7211 19.5655 10.752C19.2874 10.6284 18.9785 10.6902 18.7004 10.6284C18.6695 10.5357 18.5768 10.5048 18.4842 10.5048C18.3606 10.5357 18.2679 10.5666 18.1443 10.5975C18.0516 10.5666 17.928 10.5357 17.8353 10.5048C17.6809 10.5357 17.5573 10.5975 17.4028 10.6284C17.1865 10.5666 16.9703 10.5048 16.754 10.443C16.5686 10.5357 16.3524 10.5048 16.167 10.5357C15.9816 10.443 15.7653 10.4739 15.58 10.4121C15.2092 10.5048 14.7458 10.3812 14.375 10.5666C14.1588 10.5666 14.0352 10.752 13.788 10.6593C13.7571 10.7211 13.7571 10.7829 13.6335 10.8138C13.51 10.7829 13.4173 10.752 13.2937 10.7211C13.2937 10.7211 13.0156 10.9064 12.8611 10.8447C12.8303 10.9991 12.614 10.9991 12.4595 11.0609C12.0888 11.03 11.718 10.9064 11.3782 10.8138C11.2546 10.8447 11.1619 10.8755 11.0383 10.9064C11.0074 10.9682 10.9765 11.0609 10.9147 11.1227C10.6676 11.1227 10.4204 11.1536 10.2041 11.2463C10.0188 11.2154 9.83338 11.1845 9.64801 11.2154C9.18457 11.0918 8.90651 11.4935 8.44308 11.3699C8.2886 11.4626 8.01054 11.4008 7.94875 11.617C7.578 11.7715 7.11457 11.8024 6.68203 11.8951C6.65113 11.9569 6.62024 12.0496 6.55845 12.1114C6.06412 12.1114 5.56979 12.1423 5.07546 12.2659C4.92098 12.3585 5.16814 12.4821 5.01366 12.5748C4.7356 12.5748 4.64292 12.7911 4.39575 12.8529C4.36486 12.9147 4.33396 13.0074 4.27217 13.0691C4.11769 13.1 3.96321 13.2236 3.77784 13.1309C3.65426 13.1618 3.49978 13.1618 3.49978 13.3163C3.3453 13.3472 3.19082 13.4708 3.00545 13.3472C2.97455 13.5326 2.69649 13.6562 2.6656 13.8415C2.48022 13.9033 2.29485 13.9342 2.10948 13.996C2.14037 14.1196 1.86231 14.1196 1.89321 14.2432C1.73873 14.1505 1.64604 14.2432 1.52246 14.2432C1.42977 14.3977 1.36798 14.5522 1.30619 14.7066C0.997235 14.892 0.780966 15.0774 0.688279 15.3554C0.719175 15.788 0.255741 16.0969 0.286636 16.5295C0.47201 16.5295 0.502905 16.6531 0.564697 16.7458C0.47201 16.9311 0.595592 17.1783 0.441114 17.3637C0.595592 17.5799 0.719175 17.7962 0.873653 18.0125C0.719175 18.1052 0.96634 18.2288 0.811862 18.3214C0.842757 18.5068 1.15171 18.5068 1.18261 18.6922C1.39888 18.7231 1.52246 18.8467 1.70783 18.9085C1.80052 18.754 1.89321 18.8776 2.04769 18.9085C2.35664 18.7231 2.32575 18.4141 2.51112 18.1979C2.75829 18.1979 2.75829 17.9816 3.00545 17.9507C3.15993 17.6417 3.31441 17.3019 3.56157 17.0238C3.68515 16.9929 3.77784 16.962 3.90142 16.9311C4.02501 16.684 4.11769 16.4368 4.36486 16.2205C4.55023 16.1587 4.7356 16.1278 4.92098 16.066C5.01366 16.0969 5.13725 16.1278 5.22993 16.1587C5.38441 16.1278 5.41531 15.9425 5.63158 15.9425C5.81695 15.6644 6.06412 15.4172 6.31128 15.1701C6.43486 15.1392 6.52755 15.1083 6.65113 15.0774C6.62024 14.9538 6.92919 14.9538 6.8674 14.8302C7.14546 14.7066 7.5471 14.7375 7.70158 14.4904C8.01054 14.3359 8.41218 14.3977 8.75203 14.2741C8.75203 14.1196 8.9683 14.0269 9.03009 13.9033C9.27726 13.7798 9.55532 13.9342 9.80248 13.8724C9.80248 13.6562 10.235 13.7489 10.235 13.5635C10.3277 13.5944 10.4204 13.6253 10.5131 13.5944C10.544 13.6871 10.6367 13.718 10.7294 13.718C10.8838 13.6562 10.9765 13.5326 11.0692 13.4399C11.1928 13.409 11.2855 13.3781 11.4091 13.3472C11.5635 13.409 11.718 13.4399 11.9034 13.5017C12.0888 13.409 12.4286 13.4399 12.5213 13.2236C12.8303 13.2854 13.0774 13.1309 13.3864 13.1618C13.4173 13.1309 13.4173 13.1 13.4482 13.0383C13.7262 13.1309 13.9116 12.9456 14.1588 12.9147L14.6222 13.0074Z" fill="#372E2C" stroke="#F9F9F9" stroke-width="0.0490694" stroke-miterlimit="10"/>
<path d="M10.9154 5.75046C11.2861 6.33748 12.1512 6.1521 12.8 5.37971C13.4797 4.60731 13.7269 3.49506 13.3252 2.90804C12.9545 2.32102 12.0894 2.50639 11.4406 3.27879C10.7918 4.05119 10.5446 5.16344 10.9154 5.75046Z" fill="#372E2C" stroke="#F9F9F9" stroke-width="0.0490694" stroke-miterlimit="10"/>
<path d="M8.25783 4.54414C7.14559 2.69039 5.6626 2.50501 4.85931 3.12293C3.71618 3.98801 4.21051 5.37832 5.81708 6.08893C10.884 8.37522 9.70992 11.712 10.0807 16.4699C10.2969 19.2505 11.2238 19.4359 11.9344 19.4359C12.645 19.4359 13.3247 18.9725 13.6028 16.4699C14.0044 12.5153 14.8077 10.1054 17.2176 7.44835C20.6161 3.61726 19.3802 2.31964 17.3102 3.21562C15.5492 3.98801 13.6337 6.18162 12.3669 6.76864C11.2238 7.35566 9.1538 6.02714 8.25783 4.54414Z" fill="#372E2C" stroke="#F9F9F9" stroke-width="0.183095" stroke-miterlimit="10"/>
<path d="M10.173 17.1798C11.4706 16.7473 13.7569 15.1098 12.9227 11.4023C12.1194 7.75659 6.74359 7.04599 8.28837 4.57432C8.25748 4.54343 8.31927 4.60522 8.28837 4.57432C7.20703 2.78237 5.75493 2.41162 4.82806 3.12222C3.68493 3.9873 4.17926 5.37762 5.78583 6.08822C10.8836 8.37451 9.70957 11.7113 10.0803 16.4692C10.1112 16.7164 10.1421 16.9635 10.173 17.1798Z" fill="#372E2C"/>
<path d="M8.28837 4.57432C6.74359 7.04599 12.1194 7.75659 12.9227 11.4023C13.7569 15.1098 11.4706 16.7473 10.173 17.1798C10.1421 16.9635 10.1112 16.7164 10.0803 16.4692C9.70957 11.7113 10.8836 8.37451 5.78583 6.08822C4.17926 5.37762 3.68493 3.9873 4.82806 3.12222C5.75493 2.41162 7.20703 2.78237 8.28837 4.57432ZM8.28837 4.57432C8.25748 4.54343 8.31927 4.60522 8.28837 4.57432Z" stroke="#F9F9F9" stroke-width="0.183095" stroke-miterlimit="10"/>
<path d="M16.5369 8.22095C16.1662 8.03557 15.7645 7.94289 15.332 7.94289C13.9108 7.94289 12.7368 8.86976 12.4587 10.2292C10.9139 7.60303 6.89749 6.76885 8.2878 4.60614C9.21466 6.02735 11.1611 7.35587 12.3042 6.79974C13.5709 6.18182 15.5174 4.01912 17.2784 3.24672C19.3484 2.31985 20.5842 3.64837 17.1857 7.44855C16.9695 7.69572 16.7532 7.94289 16.5369 8.22095Z" fill="#372E2C" stroke="#F9F9F9" stroke-width="0.183095" stroke-miterlimit="10"/>
</g>
<defs>
<clipPath id="clip0_242_6198">
<rect width="28" height="22" fill="white"/>
</clipPath>
</defs>
</svg>
