<svg width="130" height="44" viewBox="0 0 130 44" fill="none" xmlns="http://www.w3.org/2000/svg">
<g clip-path="url(#clip0_1564_9841)">
<path d="M23.2916 41.8576C16.4939 43.0767 9.69627 40.7123 5.11525 35.5771C1.60559 31.6611 -0.130762 26.5998 0.164788 21.3538C0.460338 16.1078 2.78779 11.3051 6.70383 7.79542C9.40072 5.39408 12.7257 3.76855 16.3092 3.14051C23.1069 1.92136 29.9045 4.28576 34.4855 9.42095C41.6896 17.5116 40.9876 29.9617 32.8969 37.2026C30.1631 39.604 26.8382 41.1926 23.2916 41.8576ZM16.457 3.58383C13.0951 4.17493 9.95488 5.72657 7.40576 8.01708C-0.204649 14.8886 -0.869636 26.8214 5.96496 34.6166C10.3243 39.5301 16.7525 41.7837 23.1438 40.6384C26.5057 40.0473 29.6459 38.4957 32.195 36.2052C39.8054 29.2967 40.4704 17.4008 33.6358 9.60566C29.2765 4.69215 22.8852 2.43858 16.457 3.58383Z" fill="#D7000F"/>
<path d="M44.4202 16.2558C45.6393 23.0904 43.2749 29.925 38.1397 34.506C30.0121 41.747 17.4882 41.0081 10.2472 32.8805C7.80893 30.1467 6.18341 26.8217 5.55536 23.2382C4.33622 16.4036 6.70062 9.569 11.8358 4.98797C19.9634 -2.253 32.4874 -1.55107 39.7283 6.57655C42.1666 9.31039 43.7921 12.6723 44.4202 16.2558ZM6.33118 22.4624C6.92228 25.8612 8.47392 29.0014 10.8014 31.5505C17.7099 39.1979 29.7166 39.8629 37.5117 32.9913C42.4622 28.632 44.7527 22.2038 43.5705 15.7386C42.9794 12.3767 41.4277 9.2365 39.1003 6.65044C32.1918 -0.996916 20.222 -1.62496 12.4269 5.24658C7.47644 9.569 5.18593 16.0342 6.33118 22.4624Z" fill="#D7000F"/>
<path d="M26.2442 43.7045C19.2619 44.9606 12.3164 42.5592 7.58763 37.2763C0.198882 28.9639 0.900813 16.1814 9.21316 8.79265C11.9839 6.31742 15.4197 4.65495 19.0771 3.98996C26.0595 2.73387 33.0049 5.13522 37.7337 10.4182C41.3173 14.445 43.1275 19.6172 42.795 25.011C42.4995 30.4047 40.0981 35.3552 36.0713 38.9018C33.3005 41.377 29.9016 43.0395 26.2442 43.7045ZM19.2249 5.2091C15.7891 5.83715 12.575 7.38879 9.95203 9.79013C2.11996 16.8464 1.49191 29.1117 8.47428 37.0546C12.9075 42.1159 19.4835 44.4434 26.0595 43.2612C29.4953 42.6331 32.7094 41.0815 35.3324 38.7171C43.1645 31.6608 43.8294 19.3955 36.8101 11.4526C32.3769 6.35436 25.8009 4.02691 19.2249 5.2091Z" fill="#D7000F"/>
<path d="M62.8583 26.8241H61.2697V25.8267C60.8264 26.233 60.3462 26.5286 59.8659 26.7502C59.3856 26.9719 58.8315 27.0827 58.2773 27.0827C57.169 27.0827 56.2823 26.6394 55.6174 25.7897C54.9524 24.94 54.6199 23.7209 54.6199 22.2062C54.6199 21.4303 54.7307 20.6915 54.9524 20.1004C55.174 19.4723 55.4696 18.9551 55.876 18.5118C56.2454 18.1054 56.6887 17.7729 57.2059 17.5513C57.7231 17.3296 58.2404 17.2188 58.7945 17.2188C59.2748 17.2188 59.7181 17.2557 60.0875 17.3665C60.457 17.4774 60.8634 17.6251 61.2697 17.8468V13.783H62.8583V26.8241ZM61.2697 24.4967V19.1398C60.8634 18.9551 60.457 18.8073 60.1245 18.7335C59.792 18.6596 59.4226 18.6226 59.0162 18.6226C58.1295 18.6226 57.4645 18.9182 56.9473 19.5462C56.4671 20.1743 56.2085 21.024 56.2085 22.1692C56.2085 23.2775 56.3932 24.1272 56.7626 24.7183C57.132 25.3094 57.7601 25.605 58.5729 25.605C59.0162 25.605 59.4595 25.4942 59.9398 25.3094C60.457 25.0878 60.9003 24.8292 61.2697 24.4967Z" fill="black"/>
<path d="M76.3025 22.3145H69.431C69.431 22.8686 69.5049 23.3858 69.6896 23.8292C69.8743 24.2355 70.096 24.605 70.3915 24.8636C70.6871 25.1222 71.0196 25.3439 71.4259 25.4547C71.8323 25.6025 72.2756 25.6394 72.7559 25.6394C73.384 25.6394 73.9751 25.5286 74.64 25.3069C75.305 25.0483 75.6745 24.8266 76.0808 24.5311H76.1547V26.0458C75.305 26.6369 74.012 27.0433 72.7929 27.0433C71.2412 27.0433 70.0221 26.6369 69.1724 25.7872C68.2857 24.9375 67.8793 23.7553 67.8793 22.2036C67.8793 20.6889 68.2857 19.4698 69.1354 18.5462C69.9851 17.6596 71.0565 17.1793 72.4234 17.1793C73.6795 17.1793 74.64 17.5487 75.342 18.2876C76.007 19.0265 76.3764 20.0609 76.3764 21.4278V22.3145H76.3025ZM74.7509 21.0953C74.7509 20.2826 74.5292 19.6176 74.1228 19.1743C73.7164 18.7309 73.0884 18.5093 72.2387 18.5093C71.389 18.5093 70.724 18.7679 70.2068 19.2481C69.6896 19.7284 69.431 20.3565 69.3571 21.0953H74.7509Z" fill="black"/>
<path d="M94.9609 26.8229H93.3724V21.503C93.3724 21.0966 93.3724 20.7272 93.3354 20.3577C93.2985 19.9883 93.2246 19.6928 93.1137 19.4711C93.0029 19.2125 92.7813 19.0647 92.5596 18.9169C92.3379 18.8061 91.9685 18.7322 91.5252 18.7322C91.0818 18.7322 90.6385 18.8431 90.1952 19.0647C89.7519 19.2864 89.3085 19.5819 88.8652 19.9144C88.8652 20.0622 88.9022 20.21 88.9022 20.3577C88.9022 20.5425 88.9022 20.6902 88.9022 20.875V26.8598H87.3136V21.503C87.3136 21.0966 87.2766 20.6902 87.2766 20.3208C87.2397 19.9514 87.1658 19.6558 87.055 19.4342C86.9441 19.1755 86.7594 19.0278 86.5008 18.88C86.2422 18.7692 85.9097 18.6953 85.4664 18.6953C85.0231 18.6953 84.6167 18.8061 84.1734 19.0278C83.73 19.2494 83.3237 19.508 82.8803 19.8405V26.8229H81.2917V17.4761H82.8803V18.5106C83.3606 18.1042 83.8778 17.7717 84.3581 17.55C84.8383 17.3284 85.3556 17.2175 85.9097 17.2175C86.5378 17.2175 87.0919 17.3653 87.5352 17.6239C87.9786 17.8825 88.3111 18.252 88.5327 18.7322C89.1608 18.215 89.7519 17.8086 90.2691 17.587C90.7863 17.3653 91.3405 17.2175 91.9685 17.2175C93.0029 17.2175 93.7418 17.5131 94.2221 18.1411C94.7023 18.7692 94.9609 19.6189 94.9609 20.7641V26.8229Z" fill="black"/>
<path d="M107.375 26.823H105.823V25.8255C105.675 25.9364 105.491 26.0472 105.269 26.2319C105.047 26.4166 104.789 26.5275 104.567 26.6383C104.308 26.7491 104.013 26.86 103.68 26.9708C103.348 27.0447 102.942 27.1186 102.498 27.1186C101.648 27.1186 100.947 26.823 100.355 26.2689C99.7644 25.7147 99.4688 25.0128 99.4688 24.1261C99.4688 23.4242 99.6166 22.8331 99.9121 22.3898C100.208 21.9464 100.651 21.6139 101.205 21.3553C101.759 21.0967 102.461 20.949 103.274 20.8381C104.087 20.7642 104.936 20.6903 105.86 20.6534V20.3948C105.86 20.0254 105.786 19.7298 105.675 19.5081C105.565 19.2865 105.38 19.1018 105.121 18.954C104.9 18.8432 104.641 18.7323 104.308 18.6954C104.013 18.6584 103.68 18.6215 103.311 18.6215C102.905 18.6215 102.424 18.6584 101.944 18.7693C101.427 18.8801 100.91 19.0279 100.355 19.2495H100.282V17.661C100.577 17.5871 101.02 17.4762 101.612 17.4024C102.203 17.2915 102.757 17.2546 103.311 17.2546C103.976 17.2546 104.53 17.2915 105.047 17.4024C105.528 17.5132 105.971 17.6979 106.303 17.9565C106.673 18.2151 106.931 18.5476 107.116 18.954C107.301 19.3604 107.412 19.8776 107.412 20.4687V26.823H107.375ZM105.823 24.4956V21.8725C105.343 21.9095 104.789 21.9464 104.124 21.9834C103.459 22.0573 102.942 22.1312 102.572 22.242C102.129 22.3528 101.759 22.5745 101.464 22.8331C101.168 23.0917 101.057 23.4611 101.057 23.9414C101.057 24.4956 101.205 24.865 101.538 25.1605C101.87 25.4191 102.35 25.5669 103.015 25.5669C103.57 25.5669 104.087 25.4561 104.53 25.2344C105.01 25.0867 105.417 24.828 105.823 24.4956Z" fill="black"/>
<path d="M118.053 19.175H117.979C117.757 19.1011 117.536 19.0641 117.314 19.0641C117.093 19.0272 116.834 19.0272 116.538 19.0272C116.058 19.0272 115.578 19.138 115.134 19.3597C114.691 19.5813 114.248 19.8399 113.841 20.1724V26.8223H112.253V17.4755H113.841V18.8425C114.469 18.3252 115.024 17.9928 115.504 17.7711C115.984 17.5494 116.464 17.4386 116.982 17.4386C117.24 17.4386 117.462 17.4386 117.573 17.4755C117.684 17.4755 117.868 17.5125 118.127 17.5494V19.175H118.053Z" fill="black"/>
<path d="M129.432 30.2583H127.843V25.7512C127.363 26.1576 126.883 26.4901 126.402 26.6748C125.922 26.8965 125.405 26.9703 124.851 26.9703C123.743 26.9703 122.856 26.527 122.191 25.6773C121.526 24.8276 121.193 23.6454 121.193 22.1307C121.193 21.318 121.304 20.616 121.526 19.988C121.748 19.3599 122.043 18.8427 122.45 18.4363C122.819 18.03 123.262 17.6975 123.743 17.4758C124.223 17.2541 124.777 17.1433 125.331 17.1433C125.848 17.1433 126.292 17.2172 126.661 17.328C127.031 17.4389 127.437 17.5866 127.843 17.8083L127.954 17.4019H129.432V30.2583ZM127.843 24.4212V19.1383C127.4 18.9536 127.031 18.8058 126.698 18.7319C126.366 18.658 125.996 18.6211 125.627 18.6211C124.703 18.6211 124.038 18.9166 123.558 19.5447C123.078 20.1727 122.856 21.0224 122.856 22.0938C122.856 23.2021 123.041 24.0148 123.447 24.6059C123.816 25.197 124.444 25.4926 125.257 25.4926C125.701 25.4926 126.181 25.3818 126.624 25.197C127.031 25.0123 127.474 24.7537 127.843 24.4212Z" fill="black"/>
</g>
<defs>
<clipPath id="clip0_1564_9841">
<rect width="129.303" height="44" fill="white" transform="translate(0.123047)"/>
</clipPath>
</defs>
</svg>
