<svg width="21" height="20" viewBox="0 0 21 20" fill="none" xmlns="http://www.w3.org/2000/svg">
<path d="M10.516 19.0136C7.42934 19.5672 4.3427 18.4935 2.26257 16.1618C0.66892 14.3836 -0.119516 12.0854 0.0146857 9.70334C0.148888 7.32126 1.20573 5.14048 2.9839 3.54684C4.20849 2.45645 5.71827 1.71834 7.34546 1.43316C10.4321 0.879577 13.5188 1.95319 15.5989 4.28495C18.8701 7.95872 18.5513 13.612 14.8775 16.8999C13.6362 17.9903 12.1264 18.7116 10.516 19.0136ZM7.41257 1.63446C5.88602 1.90287 4.46012 2.60742 3.30263 3.64749C-0.153067 6.76768 -0.455021 12.1861 2.6484 15.7256C4.62788 17.9567 7.54677 18.98 10.4489 18.46C11.9754 18.1916 13.4013 17.487 14.5588 16.447C18.0145 13.31 18.3165 7.90839 15.213 4.36882C13.2336 2.13772 10.3315 1.11443 7.41257 1.63446Z" fill="#D7000F"/>
<path d="M20.111 7.3882C20.6646 10.4916 19.591 13.595 17.2592 15.6752C13.5686 18.9631 7.88183 18.6276 4.59389 14.937C3.48672 13.6957 2.74861 12.1859 2.46343 10.5587C1.90985 7.4553 2.98347 4.35189 5.31522 2.27176C9.00578 -1.01618 14.6926 -0.69745 17.9805 2.9931C19.0877 4.23446 19.8258 5.76101 20.111 7.3882ZM2.81571 10.2064C3.08412 11.7498 3.78868 13.1756 4.84552 14.3331C7.98249 17.8056 13.4344 18.1076 16.974 14.9874C19.2219 13.0079 20.262 10.089 19.7252 7.15335C19.4567 5.6268 18.7522 4.20091 17.6953 3.02665C14.5584 -0.445822 9.1232 -0.731 5.58363 2.38919C3.33575 4.35189 2.29568 7.28755 2.81571 10.2064Z" fill="#D7000F"/>
<path d="M11.8581 19.851C8.68753 20.4214 5.53379 19.331 3.38656 16.9322C0.0315095 13.1577 0.350239 7.35351 4.12467 3.99847C5.38281 2.87453 6.94291 2.11964 8.60366 1.81769C11.7742 1.24733 14.9279 2.33772 17.0752 4.73658C18.7023 6.56507 19.5243 8.9136 19.3734 11.3628C19.2392 13.812 18.1488 16.0598 16.3203 17.6703C15.0621 18.7942 13.5188 19.5491 11.8581 19.851ZM8.67076 2.37127C7.11066 2.65645 5.65121 3.36101 4.46017 4.4514C0.903822 7.65546 0.618643 13.2248 3.78916 16.8315C5.80219 19.1297 8.78818 20.1865 11.7742 19.6497C13.3343 19.3646 14.7937 18.66 15.9848 17.5864C19.5411 14.3823 19.8431 8.81295 16.6558 5.20628C14.6427 2.8913 11.6567 1.83446 8.67076 2.37127Z" fill="#D7000F"/>
</svg>
