<svg width="24" height="21" viewBox="0 0 24 21" fill="none" xmlns="http://www.w3.org/2000/svg">
<path d="M12.6371 1.52747C12.2669 1.22111 11.7331 1.22105 11.3627 1.52728C9.58369 2.99824 4.49149 7.20174 1.3927 9.68933C1.2717 9.79051 1.17421 9.91496 1.10656 10.0546C1.0389 10.1943 1.0026 10.346 1 10.5C1 10.78 1.11589 11.0484 1.32218 11.2464C1.52847 11.4443 1.80826 11.5556 2.1 11.5556H3.3C3.85228 11.5556 4.3 12.0033 4.3 12.5556V18.9444C4.3 19.2244 4.41589 19.4929 4.62218 19.6908C4.82847 19.8888 5.10826 20 5.4 20H8.7C8.99174 20 9.27153 19.8888 9.47782 19.6908C9.68411 19.4929 9.8 19.2244 9.8 18.9444V14.7222C9.8 14.1699 10.2477 13.7222 10.8 13.7222H13.2C13.7523 13.7222 14.2 14.1699 14.2 14.7222V18.9444C14.2 19.2244 14.3159 19.4929 14.5222 19.6908C14.7285 19.8888 15.0083 20 15.3 20H18.6C18.8917 20 19.1715 19.8888 19.3778 19.6908C19.5841 19.4929 19.7 19.2244 19.7 18.9444V12.5556C19.7 12.0033 20.1477 11.5556 20.7 11.5556H21.9C22.1917 11.5556 22.4715 11.4443 22.6778 11.2464C22.8841 11.0484 23 10.78 23 10.5C22.9985 10.3431 22.9597 10.1885 22.8867 10.0481C22.8137 9.90761 22.7084 9.78494 22.5787 9.68933C19.5016 7.20185 14.4151 2.99861 12.6371 1.52747Z" fill="#111111" stroke="#111111" stroke-width="1.5" stroke-linecap="round"/>
</svg>
