<svg width="24" height="24" viewBox="0 0 24 24" fill="none" xmlns="http://www.w3.org/2000/svg">
<path d="M2 8H21" stroke="#111111" stroke-width="1.5"/>
<path d="M21 10V8V7C21 4.79086 19.2091 3 17 3H6C3.79086 3 2 4.79086 2 7V16C2 18.2091 3.79086 20 6 20H9" stroke="#111111" stroke-width="1.5" stroke-linecap="round" stroke-linejoin="round"/>
<path d="M8 2V4" stroke="#111111" stroke-width="1.5" stroke-linecap="round"/>
<path d="M15 2V4" stroke="#111111" stroke-width="1.5" stroke-linecap="round"/>
<path d="M17 22C19.7614 22 22 19.7614 22 17C22 14.2386 19.7614 12 17 12C14.2386 12 12 14.2386 12 17C12 19.7614 14.2386 22 17 22Z" stroke="#111111" stroke-width="1.5" stroke-linecap="round" stroke-linejoin="round"/>
<path d="M17 19L17 15" stroke="#111111" stroke-width="1.5" stroke-linecap="round"/>
<path d="M15 17H19" stroke="#111111" stroke-width="1.5" stroke-linecap="round"/>
</svg>
