<svg width="79" height="57" viewBox="0 0 79 57" fill="none" xmlns="http://www.w3.org/2000/svg">
<mask id="path-1-inside-1_1540_1011" fill="white">
<path fill-rule="evenodd" clip-rule="evenodd" d="M12.1 0H5C2.23857 0 0 2.23858 0 5V41C0 43.7614 2.23858 46 5 46H12.1C12.5633 43.7178 14.581 42 17 42C19.419 42 21.4367 43.7178 21.9 46H67C69.7614 46 72 43.7614 72 41V5C72 2.23858 69.7614 0 67 0H21.9C21.4367 2.28224 19.419 4 17 4C14.581 4 12.5633 2.28224 12.1 0Z"/>
</mask>
<path fill-rule="evenodd" clip-rule="evenodd" d="M12.1 0H5C2.23857 0 0 2.23858 0 5V41C0 43.7614 2.23858 46 5 46H12.1C12.5633 43.7178 14.581 42 17 42C19.419 42 21.4367 43.7178 21.9 46H67C69.7614 46 72 43.7614 72 41V5C72 2.23858 69.7614 0 67 0H21.9C21.4367 2.28224 19.419 4 17 4C14.581 4 12.5633 2.28224 12.1 0Z" fill="white"/>
<path d="M12.1 0L14.06 -0.397864L13.7348 -2H12.1V0ZM12.1 46V48H13.7348L14.06 46.3979L12.1 46ZM21.9 46L19.94 46.3979L20.2652 48H21.9V46ZM21.9 0V-2H20.2652L19.94 -0.397864L21.9 0ZM5 2H12.1V-2H5V2ZM2 5C2 3.34314 3.34314 2 5 2V-2C1.134 -2 -2 1.13401 -2 5H2ZM2 41V5H-2V41H2ZM5 44C3.34315 44 2 42.6569 2 41H-2C-2 44.866 1.13401 48 5 48V44ZM12.1 44H5V48H12.1V44ZM17 40C13.6111 40 10.7887 42.4062 10.14 45.6021L14.06 46.3979C14.3378 45.0294 15.551 44 17 44V40ZM23.86 45.6021C23.2113 42.4062 20.3889 40 17 40V44C18.449 44 19.6622 45.0294 19.94 46.3979L23.86 45.6021ZM67 44H21.9V48H67V44ZM70 41C70 42.6569 68.6569 44 67 44V48C70.866 48 74 44.866 74 41H70ZM70 5V41H74V5H70ZM67 2C68.6569 2 70 3.34315 70 5H74C74 1.134 70.866 -2 67 -2V2ZM21.9 2H67V-2H21.9V2ZM19.94 -0.397864C19.6622 0.970639 18.449 2 17 2V6C20.3889 6 23.2113 3.59384 23.86 0.397864L19.94 -0.397864ZM17 2C15.551 2 14.3378 0.97064 14.06 -0.397864L10.14 0.397864C10.7887 3.59384 13.6111 6 17 6V2Z" fill="#111111" mask="url(#path-1-inside-1_1540_1011)"/>
<path d="M17 5.5V40.5" stroke="#111111" stroke-width="2" stroke-dasharray="4 4"/>
<circle cx="32.5" cy="23" r="2" fill="#111111"/>
<circle cx="44.5" cy="23" r="2" fill="#111111"/>
<circle cx="56.5" cy="23" r="2" fill="#111111"/>
<circle cx="66" cy="44" r="13" fill="#6C2EF3"/>
<rect x="65.625" y="38.625" width="1.25" height="6.75" rx="0.625" stroke="white" stroke-width="1.25"/>
<rect width="2.5" height="2.5" rx="1.25" transform="matrix(1 0 0 -1 65 49.5)" fill="white"/>
</svg>
