<svg width="75" height="69" viewBox="0 0 75 69" fill="none" xmlns="http://www.w3.org/2000/svg">
<path d="M1 9.0013C1 6.60807 2.9401 4.66797 5.33333 4.66797H58.6667C61.0599 4.66797 63 6.60807 63 9.0013V18.668H1V9.0013Z" fill="white" stroke="#111111" stroke-width="2"/>
<mask id="path-2-inside-1_1540_108" fill="white">
<path d="M0 57.0006C0 59.9462 2.38781 62.334 5.33333 62.334H58.6667C61.6122 62.334 64 59.9462 64 57.0007V19.6673H0V57.0006Z"/>
</mask>
<path d="M0 57.0006C0 59.9462 2.38781 62.334 5.33333 62.334H58.6667C61.6122 62.334 64 59.9462 64 57.0007V19.6673H0V57.0006Z" fill="white"/>
<path d="M-2 57.0007C-2 61.0507 1.28325 64.334 5.33333 64.334H58.6667C62.7168 64.334 66 61.0507 66 57.0007H62C62 58.8416 60.5076 60.334 58.6667 60.334H5.33333C3.49238 60.334 2 58.8416 2 57.0007H-2ZM64 19.6673H0H64ZM-2 19.6673V57.0007C-2 61.0507 1.28325 64.334 5.33333 64.334V60.334C3.49238 60.334 2 58.8416 2 57.0007V19.6673H-2ZM58.6667 64.334C62.7168 64.334 66 61.0507 66 57.0007V19.6673H62V57.0007C62 58.8416 60.5076 60.334 58.6667 60.334V64.334Z" fill="#111111" mask="url(#path-2-inside-1_1540_108)"/>
<circle cx="62" cy="56" r="13" fill="#6C2EF3"/>
<rect x="61.625" y="50.625" width="1.25" height="6.75" rx="0.625" stroke="white" stroke-width="1.25"/>
<rect width="2.5" height="2.5" rx="1.25" transform="matrix(1 0 0 -1 61 61.5)" fill="white"/>
<rect x="16.5" y="0.5" width="1" height="8" rx="0.5" stroke="#111111"/>
<rect x="46.5" y="0.5" width="1" height="8" rx="0.5" stroke="#111111"/>
<circle cx="20" cy="37.668" r="2" fill="#111111"/>
<circle cx="32" cy="37.668" r="2" fill="#111111"/>
<circle cx="44" cy="37.668" r="2" fill="#111111"/>
</svg>
