<svg width="18" height="22" viewBox="0 0 18 22" fill="none" xmlns="http://www.w3.org/2000/svg">
<path d="M9 1V2" stroke="white" stroke-width="2" stroke-linecap="round"/>
<path d="M8.99967 2.41699C5.40982 2.41699 2.49967 5.32714 2.49967 8.91699V13.7392C2.49967 14.6658 1.6653 15.4389 1.01009 16.0941V16.0941C0.354881 16.7493 1.08417 17.5837 2.01078 17.5837H8.99967M8.99967 2.41699C12.5895 2.41699 15.4997 5.32714 15.4997 8.91699V13.7392C15.4997 14.6658 16.334 15.4389 16.9893 16.0941V16.0941C17.6445 16.7493 16.9152 17.5837 15.9886 17.5837H8.99967" stroke="white" stroke-width="1.5" stroke-linecap="round"/>
<path d="M6.83301 18.667C6.83301 19.8636 7.80302 20.8337 8.99967 20.8337C10.1963 20.8337 11.1663 19.8636 11.1663 18.667" stroke="white" stroke-width="1.5" stroke-linecap="round"/>
</svg>
