<svg width="36" height="32" viewBox="0 0 36 32" fill="none" xmlns="http://www.w3.org/2000/svg">
<path d="M9 12.5C9 10.567 10.567 9 12.5 9H13.5C15.9853 9 18 11.0147 18 13.5V16H12.5C10.567 16 9 14.433 9 12.5V12.5Z" stroke="#111111" stroke-width="1.5"/>
<path d="M27 12.5C27 10.567 25.433 9 23.5 9H22.5C20.0147 9 18 11.0147 18 13.5V16H23.5C25.433 16 27 14.433 27 12.5V12.5Z" stroke="#111111" stroke-width="1.5"/>
<path d="M9 21V21C12.6411 21 16.0274 19.1311 17.9683 16.0504L18 16" stroke="#111111" stroke-width="1.5" stroke-linecap="round"/>
<path d="M27 21V21C23.3589 21 19.9726 19.1311 18.0317 16.0504L18 16" stroke="#111111" stroke-width="1.5" stroke-linecap="round"/>
<path d="M1 16L35 16" stroke="#111111" stroke-width="1.5"/>
<path d="M18 31L18 1" stroke="#111111" stroke-width="1.5"/>
<rect x="0.75" y="0.75" width="34.5" height="30.5" rx="1.25" stroke="#111111" stroke-width="1.5"/>
</svg>
