<svg width="21" height="20" viewBox="0 0 21 20" fill="none" xmlns="http://www.w3.org/2000/svg">
<g clip-path="url(#clip0_1133_6020)">
<mask id="mask0_1133_6020" style="mask-type:luminance" maskUnits="userSpaceOnUse" x="-59" y="-57" width="142" height="98">
<path d="M-58.4414 -56.2982H82.4116V40.6035H-58.4414V-56.2982Z" fill="white"/>
</mask>
<g mask="url(#mask0_1133_6020)">
<path d="M10.4998 2.66248C5.99045 2.66248 2.33398 5.47147 2.33398 8.93859C2.33398 11.1656 3.84844 13.121 6.12279 14.237L5.35335 17.0315C5.32391 17.1173 5.34833 17.2082 5.41224 17.27C5.45624 17.3131 5.51497 17.3369 5.57871 17.3369C5.6279 17.3369 5.67675 17.3179 5.72092 17.2845L9.0294 15.1097C9.5099 15.1765 10.0001 15.2145 10.4998 15.2145C15.0092 15.2145 18.666 12.4057 18.666 8.93859C18.666 5.47147 15.0092 2.66248 10.4998 2.66248Z" fill="#111111"/>
</g>
</g>
<defs>
<clipPath id="clip0_1133_6020">
<rect width="16.6667" height="15" fill="white" transform="translate(2.16406 2.5)"/>
</clipPath>
</defs>
</svg>
