<svg width="20" height="20" viewBox="0 0 20 20" fill="none" xmlns="http://www.w3.org/2000/svg">
<g clip-path="url(#clip0_1133_6047)">
<path d="M15.8967 6.27816C14.8306 6.93698 14.172 8.0664 14.172 9.3213C14.172 10.7331 15.0187 12.0193 16.3043 12.5527C16.0535 13.3684 15.6772 14.1213 15.2068 14.8115C14.517 15.784 13.7958 16.788 12.7296 16.788C11.6635 16.788 11.3499 16.1605 10.0956 16.1605C8.87264 16.1605 8.43363 16.8193 7.4302 16.8193C6.42676 16.8193 5.7369 15.9095 4.95296 14.7801C3.91816 13.2115 3.32237 11.3919 3.29102 9.47816C3.29102 6.37228 5.29789 4.70953 7.30477 4.70953C8.37092 4.70953 9.24893 5.39973 9.90743 5.39973C10.5346 5.39973 11.538 4.67816 12.7296 4.67816C13.9839 4.64679 15.1755 5.24287 15.8967 6.27816ZM12.1652 3.36051C12.6982 2.73306 12.9805 1.94875 13.0118 1.13306C13.0118 1.03894 13.0118 0.913454 12.9805 0.819336C12.0711 0.913454 11.2244 1.35267 10.6287 2.04287C10.0956 2.63894 9.782 3.39189 9.75065 4.20757C9.75065 4.30169 9.75065 4.39581 9.782 4.48992C9.84472 4.48992 9.93879 4.5213 10.0015 4.5213C10.8482 4.45855 11.6321 4.01934 12.1652 3.36051Z" fill="black"/>
</g>
<defs>
<clipPath id="clip0_1133_6047">
<rect width="13.0133" height="16" fill="white" transform="translate(3.29102 0.817383)"/>
</clipPath>
</defs>
</svg>
