<svg width="20" height="20" viewBox="0 0 20 20" fill="none" xmlns="http://www.w3.org/2000/svg">
<path d="M16.8031 10.2383C16.8031 9.75078 16.7594 9.28203 16.6781 8.83203H10.2031V11.4914H13.9031C13.7438 12.3508 13.2594 13.0789 12.5313 13.5664V15.2914H14.7531C16.0531 14.0945 16.8031 12.332 16.8031 10.2383Z" fill="#4285F4"/>
<path d="M10.2023 16.9574C12.0586 16.9574 13.6148 16.3418 14.7523 15.2918L12.5305 13.5668C11.9148 13.9793 11.1273 14.223 10.2023 14.223C8.41172 14.223 6.89609 13.0137 6.35547 11.3887H4.05859V13.1699C5.18984 15.4168 7.51484 16.9574 10.2023 16.9574Z" fill="#34A853"/>
<path d="M6.35625 11.3879C6.21875 10.9754 6.14063 10.5348 6.14063 10.0816C6.14063 9.62852 6.21875 9.18789 6.35625 8.77539V6.99414H4.05938C3.57812 7.95218 3.3277 9.00952 3.32813 10.0816C3.32813 11.191 3.59375 12.241 4.05938 13.1691L6.35625 11.3879Z" fill="#FBBC05"/>
<path d="M10.2023 5.94141C11.2117 5.94141 12.118 6.28828 12.8305 6.96953L14.8023 4.99766C13.6117 3.88828 12.0555 3.20703 10.2023 3.20703C7.51484 3.20703 5.18984 4.74766 4.05859 6.99453L6.35547 8.77578C6.89609 7.15078 8.41172 5.94141 10.2023 5.94141Z" fill="#EA4335"/>
</svg>
