<svg width="30" height="30" viewBox="0 0 30 30" fill="none" xmlns="http://www.w3.org/2000/svg">
<path d="M25.3516 23.4586C28.1589 19.6897 22.9263 17.7522 22.9263 17.7522C20.713 16.6845 19.1857 17.1088 18.2947 17.6603C17.4038 18.2119 16.3573 18.2826 15.4097 17.9007C15.1693 17.8017 14.9501 17.7098 14.7592 17.6179C13.9177 17.2148 13.2318 16.5289 12.8288 15.6875C12.7439 15.5036 12.6449 15.2915 12.553 15.0723C12.1712 14.1248 12.2631 13.0571 12.8005 12.1944C13.3379 11.3317 13.7905 9.77608 12.7157 7.54162C12.7157 7.52748 10.7711 2.30196 7.00223 5.10917C7.00223 5.10917 2.05955 8.2558 5.54559 15.9279C7.34871 19.8948 10.559 23.105 14.5329 24.9152C22.198 28.4083 25.3516 23.4586 25.3516 23.4586Z" stroke="#111111" stroke-width="2" stroke-miterlimit="10"/>
<path d="M18 7C18 7 22.3814 8.27954 24 13" stroke="#111111" stroke-width="2" stroke-miterlimit="10" stroke-linecap="round"/>
<path d="M18 1C18 1 26.0326 3.55911 29 13" stroke="#111111" stroke-width="2" stroke-miterlimit="10" stroke-linecap="round"/>
</svg>
